<svg xmlns="http://www.w3.org/2000/svg" width="59.056" height="60" viewBox="0 0 59.056 60"><g transform="translate(-1 -1)"><path d="M59.55,48.13l-3.1-1.79,1.76-.47a1,1,0,0,0-.51-1.93l-3.7,1-2.75-1.59,4.5-1.2a1,1,0,0,0-.52-1.94L48.8,41.93l-4.08-2.36a4.58,4.58,0,0,0,0-3.14l4.08-2.36,6.43,1.73a1,1,0,1,0,.52-1.94l-4.5-1.2L54,31.07l3.7,1a1,1,0,0,0,.51-1.93l-1.76-.47,3.1-1.79a1,1,0,0,0-1-1.74l-3.1,1.8.47-1.77A1,1,0,0,0,54,25.64l-1,3.7-2.75,1.59,1.21-4.5a1,1,0,0,0-1.94-.52L47.8,32.34,43.72,34.7A4.92,4.92,0,0,0,41,33.1V28.41l4.71-4.7a1,1,0,1,0-1.42-1.42L41,25.59V22.41l2.71-2.7a1,1,0,1,0-1.42-1.42L41,19.59V16a1,1,0,0,0-2,0v3.59l-1.29-1.3a1,1,0,0,0-1.42,1.42L39,22.41v3.18l-3.29-3.3a1,1,0,0,0-1.42,1.42L39,28.41V33.1a4.92,4.92,0,0,0-2.72,1.6L32.2,32.34l-1.72-6.43a1,1,0,0,0-1.94.52l1.21,4.5L27,29.34l-1-3.7a1,1,0,0,0-1.93.52l.47,1.77-3.1-1.8a1,1,0,0,0-1,1.74l3.1,1.79-1.76.47a1,1,0,0,0,.51,1.93l3.7-1,2.75,1.59-4.5,1.2a1,1,0,0,0,.52,1.94l6.43-1.73,4.08,2.36a4.58,4.58,0,0,0,0,3.14L31.2,41.93,24.77,40.2a1,1,0,1,0-.52,1.94l4.5,1.2L26,44.93l-3.7-1a1,1,0,0,0-.51,1.93l1.76.47-3.1,1.79a1,1,0,1,0,1,1.74l3.1-1.8-.47,1.77a1,1,0,0,0,1.93.52l1-3.7,2.75-1.59-1.21,4.5a1,1,0,1,0,1.94.52l1.72-6.43,4.08-2.36A4.92,4.92,0,0,0,39,42.9v4.69l-4.71,4.7a1,1,0,0,0,1.42,1.42L39,50.41v3.18l-2.71,2.7a1,1,0,0,0,1.42,1.42L39,56.41V60a1,1,0,0,0,2,0V56.41l1.29,1.3a1,1,0,1,0,1.42-1.42L41,53.59V50.41l3.29,3.3a1,1,0,1,0,1.42-1.42L41,47.59V42.9a4.92,4.92,0,0,0,2.72-1.6l4.08,2.36,1.72,6.43a1,1,0,1,0,1.94-.52l-1.21-4.5L53,46.66l1,3.7a1,1,0,0,0,1.93-.52l-.47-1.77,3.1,1.8a1,1,0,0,0,.99-1.74Z" fill="#e0e8f5"/><path d="M36,1H4A3,3,0,0,0,1,4V36a3,3,0,0,0,3,3H36a3,3,0,0,0,3-3V4A3,3,0,0,0,36,1Zm1,35a1,1,0,0,1-1,1H4a1,1,0,0,1-1-1V4A1,1,0,0,1,4,3H36a1,1,0,0,1,1,1ZM5.29,6.71A1,1,0,0,1,6.71,5.29L7.37,6A1,1,0,0,1,6,7.37ZM7.37,34l-.66.67a1,1,0,0,1-1.42-1.42L6,32.63A1,1,0,0,1,7.37,34ZM32.63,6l.66-.67a1,1,0,0,1,1.42,1.42L34,7.37A1,1,0,0,1,32.63,6Zm2.08,27.33a1,1,0,1,1-1.42,1.42L32.63,34A1,1,0,0,1,34,32.63ZM33,20A13,13,0,1,0,20,33,13,13,0,0,0,33,20ZM13.79,29.07a6.66,6.66,0,0,0,4.15-4.53,5,5,0,0,0,1.55.41,4.63,4.63,0,0,1,.06,6,10.94,10.94,0,0,1-5.76-1.88ZM26.21,10.93a6.66,6.66,0,0,0-4.15,4.53,5,5,0,0,0-1.55-.41,4.63,4.63,0,0,1-.06-6,10.94,10.94,0,0,1,5.76,1.88ZM20,23a3,3,0,1,1,3-3A3,3,0,0,1,20,23Zm4.67-4.75a5.22,5.22,0,0,0-.81-1.39,4.63,4.63,0,0,1,4.22-4.3A10.85,10.85,0,0,1,30.8,18a6.65,6.65,0,0,0-6.13.25Zm-6.42-2.92a5.22,5.22,0,0,0-1.39.81,4.63,4.63,0,0,1-4.3-4.22A10.85,10.85,0,0,1,18,9.2a6.65,6.65,0,0,0,.25,6.13Zm-2.79,2.61a5,5,0,0,0-.41,1.55,4.63,4.63,0,0,1-6,.06,10.94,10.94,0,0,1,1.91-5.76A6.66,6.66,0,0,0,15.46,17.94Zm-.13,3.81a5.22,5.22,0,0,0,.81,1.39,4.63,4.63,0,0,1-4.22,4.3A10.85,10.85,0,0,1,9.2,22,6.6,6.6,0,0,0,15.33,21.75Zm6.42,2.92a5.22,5.22,0,0,0,1.39-.81,4.63,4.63,0,0,1,4.3,4.22A10.85,10.85,0,0,1,22,30.8a6.65,6.65,0,0,0-.25-6.13Zm2.79-2.61A5,5,0,0,0,25,20.51a4.63,4.63,0,0,1,6-.06,10.94,10.94,0,0,1-1.91,5.76,6.66,6.66,0,0,0-4.55-4.15Z" fill="#1ac293"/></g></svg>