<svg xmlns="http://www.w3.org/2000/svg" width="512" height="512" viewBox="0 0 512 512"><path d="M410.15,167C360.94,81.77,251.73,52.92,167,101.85,82,150.92,52.77,260,101.85,345,151.06,430.23,260.27,459.08,345,410.15,430,361.08,459.23,252,410.15,167ZM301.75,335.24h-91.5L164.5,256l45.75-79.24h91.5L347.5,256Z" fill="#e0e8f5"/><path d="M256,0C114.52,0,0,114.5,0,256S114.5,512,256,512,512,397.5,512,256,397.5,0,256,0Zm0,496C123.36,496,16,388.66,16,256S123.34,16,256,16,496,123.34,496,256,388.66,496,256,496Z" fill="#1ac293"/><path d="M443.06,148C383.46,44.77,251.24,9.33,148,68.94S9.39,260.85,68.94,364c40.24,69.69,113.12,108,187.58,108A214.368,214.368,0,0,0,364,443C467.15,383.51,502.61,251.15,443.06,148Zm-13.85,8q3.63,6.3,6.76,12.76H224.11L287.7,58.61C346.17,68.13,398.26,102.39,429.21,156ZM338.26,256l-41.13,71.24H214.87L173.74,256l41.13-71.24h82.26ZM156,82.79A198.541,198.541,0,0,1,255.51,56q7.44,0,14.89.58L164.5,240,100.87,129.78A199.257,199.257,0,0,1,156,82.79Zm-65.52,61L196.39,327.24H69.11A200.583,200.583,0,0,1,90.48,143.78ZM82.79,356q-3.63-6.3-6.76-12.76H287.89L224.3,453.39C165.83,443.87,113.74,409.6,82.79,356ZM356,429.21a198.327,198.327,0,0,1-114.41,26.23L347.5,272l63.63,110.22A199.257,199.257,0,0,1,356,429.21ZM315.61,184.76H442.89a200.58,200.58,0,0,1-21.37,183.46Z" fill="#1ac293"/></svg>