<svg xmlns="http://www.w3.org/2000/svg" width="382" height="512" viewBox="0 0 382 512"><g transform="translate(-65)"><path d="M103,474V38H409V474Zm244.57-35.83V347.54A60,60,0,0,0,359.5,311.4a60.695,60.695,0,0,0-121.39,0A60,60,0,0,0,250,347.54v90.63l48.76-31.45Z" fill="#e0e8f5"/><path d="M65,0V512H447V0ZM431,496H81V16H431Z" fill="#1ac293"/><path d="M298.81,247.71a63.77,63.77,0,0,0-63.69,63.69A63,63,0,0,0,247,348.52v95.16l51.76-33.38,51.76,33.38V348.52a63,63,0,0,0,11.93-37.11A63.771,63.771,0,0,0,298.81,247.71Zm0,16a47.69,47.69,0,1,1-47.69,47.69,47.691,47.691,0,0,1,47.69-47.69Zm35.76,150.61-35.76-23.06L263,414.32V364.14a63.859,63.859,0,0,0,71.52,0Z" fill="#1ac293"/><rect width="127.54" height="16" transform="translate(192.23 85)" fill="#1ac293"/><rect width="217.27" height="16" transform="translate(147.36 145)" fill="#1ac293"/><rect width="217.27" height="16" transform="translate(147.36 185)" fill="#1ac293"/></g></svg>