<?xml version="1.0" encoding="iso-8859-1"?>
<!-- Generator: Adobe Illustrator 19.0.0, SVG Export Plug-In . SVG Version: 6.00 Build 0)  -->
<svg version="1.1" id="Capa_1" xmlns="http://www.w3.org/2000/svg" xmlns:xlink="http://www.w3.org/1999/xlink" x="0px" y="0px"
	 viewBox="0 0 512 512" style="enable-background:new 0 0 512 512;" xml:space="preserve">
<g>
	<g>
		<path d="M467,81H45c-24.853,0-45,20.147-45,45v260c0,24.853,20.147,45,45,45h422c24.853,0,45-20.147,45-45V126
			C512,101.147,491.853,81,467,81z M430.992,338.391c-6.306,5.365-15.776,4.605-21.144-1.708L323.272,234.89l-59.839,34.139
			c-4.607,2.628-10.26,2.627-14.865,0l-59.839-34.139l-86.577,101.792c-5.364,6.308-14.833,7.077-21.144,1.708
			c-6.311-5.367-7.075-14.833-1.708-21.144l82.913-97.484l-73.645-42.016c-7.196-4.104-9.701-13.266-5.597-20.461
			c4.106-7.197,13.266-9.701,20.462-5.597c6.103,3.481,145.685,83.114,152.567,87.041c6.874-3.922,146.448-83.55,152.567-87.041
			c7.193-4.105,16.356-1.6,20.462,5.597c4.104,7.195,1.6,16.356-5.597,20.461l-73.645,42.016l82.913,97.484
			C438.067,323.558,437.303,333.023,430.992,338.391z"/>
	</g>
</g>
<g>
</g>
<g>
</g>
<g>
</g>
<g>
</g>
<g>
</g>
<g>
</g>
<g>
</g>
<g>
</g>
<g>
</g>
<g>
</g>
<g>
</g>
<g>
</g>
<g>
</g>
<g>
</g>
<g>
</g>
</svg>
