<svg id="Capa_1" enable-background="new 0 0 515.138 515.138" height="512" viewBox="0 0 515.138 515.138" width="512" xmlns="http://www.w3.org/2000/svg"><g><path d="m309.453 264.604h87.997v56.768h-87.997z" transform="matrix(.342 -.94 .94 .342 -42.679 525.045)"/><path d="m393.282 354.288c44.637 16.232 43.029 16.02 46.7 16.02 6.319 0 11.951-3.959 14.1-9.87l24.95-68.61-55.68-20.24z"/><path d="m349.779 153.709h88.006v56.768h-88.006z" transform="matrix(.342 -.94 .94 .342 88.101 489.958)"/><path d="m505.252 175.807-41.57-15.12-30.07 82.71 55.67 20.24 24.95-68.61c2.83-7.78-1.19-16.389-8.98-19.22z"/><path d="m273.53 341.942c9.843-27.068 81.845-225.074 91.698-252.169 2.831-7.785-1.185-16.392-8.971-19.223-7.786-2.833-16.392 1.186-19.223 8.971-48.99 134.723-9.347 25.704-79.465 218.529-67.385-185.312-40.433-111.191-79.465-218.529-2.831-7.785-11.437-11.804-19.223-8.971-7.786 2.831-11.802 11.438-8.971 19.223 9.851 27.09 81.863 225.124 91.698 252.169l-30.336 83.423c-2.831 7.785 1.185 16.392 8.971 19.223 7.769 2.827 16.387-1.172 19.223-8.971l18.103-49.783 18.103 49.783c2.836 7.801 11.455 11.797 19.223 8.971 7.786-2.831 11.802-11.438 8.971-19.223z"/><path d="m133.302 248.989h56.768v87.997h-56.768z" transform="matrix(.94 -.342 .342 .94 -90.385 72.887)"/><path d="m36.106 291.827 24.95 68.61c2.815 7.741 11.389 11.8 19.22 8.97l41.58-15.12-30.07-82.7z"/><path d="m92.972 138.089h56.768v88.006h-56.768z" transform="matrix(.94 -.342 .342 .94 -54.913 52.424)"/><path d="m51.456 160.688-41.57 15.12c-7.79 2.83-11.81 11.44-8.98 19.22l24.95 68.61 55.67-20.24z"/></g></svg>