<svg xmlns="http://www.w3.org/2000/svg" width="62" height="62.006" viewBox="0 0 62 62.006"><g transform="translate(-1 -0.994)"><circle cx="9" cy="9" r="9" transform="translate(29 13)" fill="#e0e8f5"/><path d="M62,21H54a1,1,0,0,0-1,.68C52.9,22.14,49.12,33,38,33S23.1,22.14,23,21.68A1,1,0,0,0,22,21H14a1,1,0,0,0-1,1A22.1,22.1,0,0,0,25,40.61V62a1,1,0,0,0,1,1H50a1,1,0,0,0,1-1V40.61A22.1,22.1,0,0,0,63,22,1,1,0,0,0,62,21Z" fill="#e0e8f5"/><path d="M44.51,7.16l-10-6C33.91.8,33.23,1,33,2V25H28a3,3,0,0,0-3,3v5H16a3,3,0,0,0-3,3v5H4a3,3,0,0,0-3,3v4a3,3,0,0,0,3,3H40a3,3,0,0,0,3-3V28a3,3,0,0,0-3-3H35V14.59l9.51-5.71a1,1,0,0,0,0-1.72ZM15,36a1,1,0,0,1,1-1H41v6H15ZM41,48a1,1,0,0,1-1,1H4a1,1,0,0,1-1-1V44a1,1,0,0,1,1-1H41Zm0-20v5H27V28a1,1,0,0,1,1-1H40A1,1,0,0,1,41,28ZM35,12.26V3.79L42.06,8Z" fill="#202020"/></g></svg>