<svg height="512pt" viewBox="0 -17 512.00472 512" width="512pt" xmlns="http://www.w3.org/2000/svg" xmlns:xlink="http://www.w3.org/1999/xlink"><linearGradient id="a"><stop offset="0" stop-color="#7ac943"/><stop offset=".4564" stop-color="#5fc146"/><stop offset="1" stop-color="#39b54a"/></linearGradient><linearGradient id="b" gradientUnits="userSpaceOnUse" x1="258.0865105628" x2="273.773896127" xlink:href="#a" y1="227.0628867682" y2="227.0628867682"/><linearGradient id="c" gradientTransform="matrix(-.709873 .709873 .709873 .709873 -2169.018981 1388.127491)" gradientUnits="userSpaceOnUse" x1="-2586.5547" x2="-2424.405" xlink:href="#a" y1="716.8907" y2="716.8907"/><linearGradient id="d"><stop offset="0" stop-color="#39b54a" stop-opacity="0"/><stop offset=".1072" stop-color="#2fab48" stop-opacity=".105882"/><stop offset=".4553" stop-color="#159043" stop-opacity=".454902"/><stop offset=".7642" stop-color="#06803f" stop-opacity=".764706"/><stop offset="1" stop-color="#007a3e"/></linearGradient><linearGradient id="e" gradientTransform="matrix(-.709873 .709873 .709873 .709873 -2169.018981 1388.127491)" gradientUnits="userSpaceOnUse" x1="-2446.5884" x2="-2561.5955" xlink:href="#d" y1="700.5611" y2="732.9417"/><linearGradient id="f" gradientTransform="matrix(-1.003922 0 0 1.003922 -2536.249876 -17.400252)" gradientUnits="userSpaceOnUse" x1="-2805.655" x2="-2764.6785" xlink:href="#a" y1="350.2666" y2="353.4187"/><linearGradient id="g"><stop offset="0" stop-color="#39b54a"/><stop offset=".2394" stop-color="#32ad48"/><stop offset=".6031" stop-color="#1d9844"/><stop offset="1" stop-color="#007a3e"/></linearGradient><linearGradient id="h" gradientTransform="matrix(-.709873 .709873 .709873 .709873 -2169.018981 1388.127491)" gradientUnits="userSpaceOnUse" x1="-2525.9653" x2="-2484.8271" xlink:href="#g" y1="741.2657" y2="741.2657"/><linearGradient id="i" gradientTransform="matrix(.709873 .709873 -.709873 .709873 -367.229942 1388.127491)" gradientUnits="userSpaceOnUse" x1="-395.2365" x2="-233.0867" xlink:href="#a" y1="-1385.8702" y2="-1385.8702"/><linearGradient id="j" gradientTransform="matrix(.709873 .709873 -.709873 .709873 -367.229942 1388.127491)" gradientUnits="userSpaceOnUse" x1="-255.2701" x2="-370.2772" xlink:href="#d" y1="-1402.1998" y2="-1369.8192"/><linearGradient id="k" gradientUnits="userSpaceOnUse" x1="233.9977033494" x2="275.1350135746" xlink:href="#a" y1="365.8573118966" y2="369.0217744328"/><linearGradient id="l" gradientTransform="matrix(.709873 .709873 -.709873 .709873 -367.229942 1388.127491)" gradientUnits="userSpaceOnUse" x1="-334.647" x2="-293.5089" xlink:href="#g" y1="-1361.4951" y2="-1361.4951"/><linearGradient id="m" gradientUnits="userSpaceOnUse" x1="268.602191944" x2="229.8877470736" xlink:href="#a" y1="370.0661544894" y2="400.8796328276"/><linearGradient id="n" gradientUnits="userSpaceOnUse" x1="245.689680138" x2="267.8811751636" y1="391.3391612772" y2="540.7625101884"><stop offset="0" stop-color="#c08552"/><stop offset="1" stop-color="#895738"/></linearGradient><linearGradient id="o" gradientUnits="userSpaceOnUse" x1="284.098731936" x2="243.4029466064" xlink:href="#d" y1="167.8117115048" y2="127.1159261752"/><linearGradient id="p" gradientUnits="userSpaceOnUse" x1="248.5525645054" x2="286.7649479836" xlink:href="#a" y1="106.3881494256" y2="106.3881494256"/><linearGradient id="q" gradientUnits="userSpaceOnUse" x1="255.9304876756" x2="255.9304876756" xlink:href="#a" y1="112.1432326828" y2="149.8751390918"/><linearGradient id="r" gradientUnits="userSpaceOnUse" x1="263.3380265448" x2="284.3177877164" xlink:href="#a" y1="124.7876302728" y2="134.470558355"/><path d="m253.839844 138.890625h17.21875v176.34375h-17.21875zm0 0" fill="url(#b)"/><path d="m.125 14.875c-1.179688-8.589844 6.160156-15.925781 14.746094-14.746094 36 4.9375 123.15625 22.792969 184.144531 83.78125 60.199219 60.199219 43.910156 125.023438 37.128906 144.285156-1.308593 3.71875-4.234375 6.640626-7.949219 7.949219-19.261718 6.78125-84.085937 23.070313-144.285156-37.128906-60.988281-60.988281-78.84375-148.144531-83.785156-184.140625zm0 0" fill="url(#c)"/><path d="m79.621094 194.597656c-.769532-.8125-1.53125-1.625-2.289063-2.445312-.34375-.378906-.691406-.753906-1.039062-1.132813-.816407-.902343-1.625-1.804687-2.425781-2.714843-.230469-.261719-.464844-.519532-.695313-.785157-1.015625-1.164062-2.015625-2.332031-3.007813-3.511719-.242187-.289062-.480468-.582031-.726562-.875-.75-.902343-1.496094-1.8125-2.230469-2.722656-.320312-.394531-.636719-.792968-.957031-1.1875-.6875-.863281-1.367188-1.726562-2.039062-2.597656-.28125-.359375-.558594-.714844-.835938-1.078125-.929688-1.207031-1.847656-2.417969-2.75-3.636719-.054688-.078125-.109375-.152344-.164062-.230468-.847657-1.148438-1.683594-2.300782-2.507813-3.457032-.269531-.382812-.539063-.765625-.808594-1.148437-.621093-.878907-1.234375-1.761719-1.84375-2.644531-.277343-.402344-.554687-.808594-.828125-1.210938-.671875-.992188-1.335937-1.984375-1.992187-2.980469-.171875-.257812-.347657-.519531-.515625-.777343-.816406-1.246094-1.617188-2.492188-2.410156-3.746094-.203126-.324219-.40625-.652344-.609376-.976563-.589843-.945312-1.179687-1.894531-1.757812-2.84375-.253906-.417969-.507812-.835937-.757812-1.253906-.550782-.914063-1.097657-1.832031-1.636719-2.75-.21875-.367187-.433594-.734375-.648438-1.101563-.734375-1.265624-1.460937-2.53125-2.171875-3.800781-.082031-.140625-.160156-.28125-.238281-.425781-.632813-1.132812-1.257813-2.269531-1.875-3.402344-.21875-.402344-.433594-.804687-.648437-1.207031-.488282-.910156-.96875-1.816406-1.445313-2.726563-.214844-.410156-.429687-.820312-.644531-1.234374-.539063-1.042969-1.074219-2.089844-1.601563-3.132813-.117187-.234375-.238281-.472656-.355469-.707031-.636718-1.273438-1.261718-2.542969-1.878906-3.8125-.167968-.347656-.332031-.695313-.496094-1.042969-.453124-.945313-.902343-1.886719-1.339843-2.828125-.199219-.425781-.394531-.847656-.59375-1.269531-.429688-.933594-.851563-1.863281-1.269531-2.789063-.164063-.359375-.328126-.71875-.488282-1.074218-.5625-1.265626-1.121094-2.53125-1.664062-3.792969-.082032-.1875-.160156-.371094-.238282-.558594-.46875-1.085937-.925781-2.167969-1.378906-3.246094-.167968-.40625-.332031-.804687-.5-1.207031-.367187-.898438-.734375-1.792969-1.097656-2.6875-.160156-.402344-.320312-.800781-.480469-1.203125-.425781-1.058594-.84375-2.121094-1.253906-3.179687-.074219-.191407-.148437-.382813-.222656-.574219-.480469-1.242188-.949219-2.480469-1.410157-3.714844-.128906-.351563-.257812-.703125-.390624-1.058594-.332032-.902343-.664063-1.804687-.988282-2.703125-.144531-.40625-.289062-.8125-.433594-1.214844-.324218-.910156-.644531-1.816406-.957031-2.71875-.117187-.328124-.234375-.660156-.347656-.988281-.417969-1.210937-.828125-2.417969-1.226563-3.617187-.074218-.214844-.140624-.429688-.214843-.648438-.328125-.992187-.652344-1.984375-.96875-2.96875-.125-.386718-.246094-.769531-.371094-1.15625-.265625-.839844-.53125-1.679687-.789063-2.511718-.121093-.378907-.238281-.753907-.351562-1.128907-.320312-1.035156-.632812-2.066406-.9375-3.085937-.042969-.140625-.082031-.277344-.125-.414063-.34375-1.160156-.679688-2.3125-1.007812-3.457031-.097657-.332031-.191407-.660156-.285157-.992188-.234375-.828124-.46875-1.652343-.695312-2.472656-.101563-.371094-.207031-.746094-.308594-1.117187-.230469-.847657-.460937-1.6875-.683594-2.523438-.074219-.28125-.152343-.566406-.226562-.84375-.292969-1.105469-.578125-2.203125-.855469-3.285156-.058594-.21875-.109375-.433594-.167969-.652344-.21875-.875-.4375-1.742187-.652343-2.605469-.082032-.34375-.167969-.683593-.25-1.027343-.1875-.761719-.367188-1.515625-.546876-2.265625-.078124-.324219-.15625-.648438-.230468-.96875-.222656-.957032-.445313-1.90625-.660156-2.84375-.015626-.082032-.035157-.164063-.054688-.246094-.230469-1.015625-.453125-2.023438-.671875-3.019531-.066406-.292969-.128906-.582031-.191406-.875-.15625-.71875-.308594-1.433594-.457031-2.140625-.066407-.3125-.132813-.628906-.195313-.9375-.15625-.734375-.304687-1.460938-.449219-2.179688-.046875-.238281-.097656-.476562-.144531-.710937-.1875-.933594-.371094-1.855469-.546875-2.765625-.039062-.203125-.074219-.402344-.113281-.605469-.136719-.714844-.273438-1.421875-.402344-2.121094-.054687-.289062-.105469-.574219-.160156-.859375-.113281-.632812-.226563-1.253906-.335938-1.871094-.046875-.257812-.09375-.519531-.140625-.773437-.148437-.839844-.292968-1.664063-.429687-2.472656 0-.011719-.003907-.023438-.003907-.03125-.140624-.824219-.273437-1.628907-.402343-2.421875-.039063-.238282-.078125-.476563-.117188-.714844-.089843-.566406-.179687-1.125-.265625-1.671875-.039062-.242187-.074218-.484375-.113281-.722656-.089844-.582031-.175781-1.15625-.261719-1.714844-.023437-.167969-.050781-.34375-.074218-.507813-.105469-.714843-.207032-1.414062-.304688-2.09375-.023438-.164062-.042969-.320312-.066406-.480468-.054688-.378906-.105469-.75-.15625-1.117188-.578125-4.28125.957031-8.253906 3.714844-11.007812l229.234374 229.234375c-1.351562 1.351562-3.007812 2.40625-4.855468 3.0625-.191406.066406-.386719.136719-.585938.203125-.101562.035156-.195312.070312-.296875.105468-.359375.121094-.726562.246094-1.109375.371094-.0625.019532-.132812.042969-.195312.066406-.320313.105469-.648438.210938-.988282.316407-.140624.046875-.285156.089843-.425781.132812-.273437.089844-.554687.175781-.839843.261719-.167969.050781-.332032.101562-.5.152344-.285157.085937-.574219.171875-.867188.257812-.175781.050782-.347656.101563-.523438.152344-.320312.089844-.644531.183594-.976562.273438-.15625.046874-.3125.089843-.472656.132812-.492188.136719-.996094.273438-1.511719.40625-.019531.007812-.042969.011719-.0625.015625-.492187.128906-1 .257813-1.519531.386719-.171875.042968-.351563.085937-.523438.128906-.375.089844-.753906.183594-1.136718.273438-.210938.046874-.421876.09375-.628907.144531-.367187.085937-.738281.167969-1.113281.25-.222656.050781-.445312.097656-.671875.144531-.394531.085938-.796875.171875-1.203125.253906-.207031.042969-.410156.085938-.617188.125-.542968.109375-1.09375.21875-1.652343.320313-.074219.015625-.148438.03125-.222657.042969-.636718.117187-1.28125.234374-1.933593.347656-.199219.03125-.40625.066406-.605469.097656-.464844.078125-.929688.152344-1.40625.226562-.246094.039063-.492188.074219-.742188.113282-.445312.066406-.890624.132812-1.339843.195312-.261719.035156-.523438.070313-.789063.109375-.460937.058594-.929687.121094-1.402344.179688-.25.027343-.5.058593-.753906.089843-.566406.066407-1.144531.132813-1.722656.191407-.160156.015625-.3125.035156-.472656.050781-.738282.074219-1.488282.144531-2.246094.210938-.195312.015624-.398438.03125-.601562.046874-.5625.042969-1.125.085938-1.699219.125-.277344.019532-.558594.035157-.839844.054688-.507813.03125-1.015625.058594-1.527344.085938-.300781.015624-.601562.027343-.90625.042968-.515625.023438-1.035156.042969-1.558593.058594-.292969.011719-.585938.019531-.882813.027344-.59375.015625-1.191406.027344-1.792969.035156-.226562 0-.449218.007812-.675781.007812-.828125.007813-1.664063.003907-2.503906-.003906-.175781 0-.355469-.007812-.535157-.007812-.667968-.011719-1.339843-.023438-2.019531-.046875-.300781-.007813-.601562-.019531-.90625-.03125-.566406-.023438-1.136719-.046875-1.707031-.074219-.332031-.015625-.660156-.03125-.992188-.050781-.5625-.035157-1.132812-.070313-1.699218-.109375-.332032-.023438-.65625-.046875-.988282-.070313-.617187-.050781-1.242187-.105469-1.871093-.160156-.273438-.027344-.550781-.046875-.828125-.074219-.902344-.089844-1.808594-.1875-2.722656-.296875-.101563-.011719-.199219-.023437-.296876-.039062-.816406-.097657-1.636718-.203125-2.460937-.320313-.3125-.042968-.625-.089844-.933594-.136718-.625-.09375-1.25-.1875-1.878906-.289063-.351563-.058594-.703125-.117187-1.058594-.179687-.605469-.101563-1.210937-.210938-1.816406-.324219-.355469-.066407-.710937-.132813-1.070313-.199219-.640624-.125-1.285156-.257812-1.929687-.394531-.320313-.066407-.636719-.128907-.957031-.199219-.886719-.195312-1.78125-.398438-2.679688-.613281-.070312-.015625-.144531-.03125-.21875-.050781-.96875-.234376-1.945312-.484376-2.921875-.742188-.300781-.082031-.609375-.167969-.910156-.25-.679687-.1875-1.363281-.378906-2.046875-.578125-.367188-.105469-.734375-.214844-1.101562-.324219-.636719-.191406-1.273438-.390625-1.914063-.59375-.375-.117187-.75-.238281-1.125-.359375-.660156-.21875-1.324219-.441406-1.984375-.667969-.351562-.121093-.699219-.238281-1.046875-.363281-.820313-.289062-1.640625-.589843-2.460937-.902343-.1875-.070313-.378907-.132813-.566407-.207032-1.011719-.386718-2.023437-.785156-3.039062-1.203125-.285157-.117187-.570313-.238281-.851563-.359375-.738281-.308594-1.476562-.617187-2.214844-.941406-.371093-.164062-.742187-.332031-1.113281-.5-.664062-.296875-1.332031-.601562-1.996093-.914062-.386719-.179688-.777344-.363282-1.167969-.550782-.667969-.324218-1.34375-.652344-2.015625-.988281-.367188-.1875-.738282-.367187-1.109375-.558594-.769531-.394531-1.546875-.800781-2.320313-1.214843-.265625-.144532-.527344-.277344-.792968-.421876-1.035157-.5625-2.074219-1.140624-3.113282-1.738281-.238281-.140625-.480468-.285156-.722656-.425781-.800781-.46875-1.601562-.941406-2.402344-1.429688-.367187-.226562-.738281-.457031-1.105468-.6875-.683594-.421874-1.367188-.855468-2.050782-1.296874-.394531-.253907-.792968-.511719-1.1875-.769532-.671875-.445312-1.347656-.898437-2.023437-1.355468-.382813-.261719-.769531-.523438-1.152344-.789063-.742187-.515625-1.484375-1.042969-2.226563-1.578125-.308593-.222656-.617187-.441406-.929687-.667969-1.046875-.761719-2.089844-1.546875-3.136719-2.351562-.164062-.125-.324218-.257813-.488281-.382813-.886719-.6875-1.769531-1.386718-2.65625-2.105468-.355469-.285157-.710937-.582032-1.066406-.875-.695313-.574219-1.394531-1.15625-2.09375-1.75-.390625-.335938-.785157-.675782-1.179688-1.015626-.671875-.582031-1.34375-1.175781-2.015625-1.773437-.390625-.351563-.78125-.699219-1.171875-1.050781-.710937-.652344-1.425781-1.316406-2.140625-1.984375-.335937-.316407-.671875-.628907-1.007812-.949219-1.042969-.996094-2.085938-2.007812-3.125-3.046875-1.117188-1.117187-2.210938-2.242187-3.296875-3.371094-.324219-.347656-.65625-.695312-.984375-1.046875zm0 0" fill="url(#e)"/><path d="m236.949219 477.195312h38.058593v-176.085937c0-82.523437-80.636718-102.792969-80.636718-102.792969 27.457031 27.457032 42.578125 63.960938 42.578125 102.792969zm0 0" fill="url(#f)"/><path d="m60.757812 86.035156c2.226563.742188 4.453126 1.335938 6.660157 1.953125 2.203125.617188 4.394531 1.238281 6.570312 1.738281 2.179688.546876 4.339844.789063 6.476563 1.066407 2.132812.265625 4.257812.863281 6.429687 1.78125 2.164063.941406 4.324219 1.972656 6.574219 3.257812-2.394531-2.558593-4.792969-5.113281-7.191406-7.671875l-11.824219-12.398437c-3.933594-4.160157-8.007813-8.109375-11.984375-12.226563-8.046875-8.117187-16.246094-15.96875-24.84375-23.453125l.855469-1.675781 7.042969 4.886719 3.542968 2.460937c1.167969.84375 2.289063 1.734375 3.433594 2.601563 4.515625 3.539062 9.191406 6.984375 13.589844 10.6875 8.972656 7.261719 17.675781 14.832031 26.429687 22.378906 1.65625 1.488281 3.320313 2.972656 4.984375 4.460937-.574218-1.601562-1.027344-3.1875-1.242187-4.773437-.296875-2.136719-.558594-4.300781-1.125-6.484375-.523438-2.179688-1.164063-4.375-1.800781-6.578125-.632813-2.207031-1.25-4.4375-2.011719-6.664063-1.347657-4.488281-3.089844-8.984374-4.765625-13.613281l1.042968-.308593c3.355469 4.199218 6.492188 8.589843 9.320313 13.109374 1.433594 2.257813 2.734375 4.550782 4.066406 6.859376 1.222657 2.316406 2.453125 4.652343 3.570313 7 1.140625 2.351562 2.414062 4.71875 3.597656 7.113281 1.136719 2.386719 1.898438 4.789062 2.164062 7.128906.046876.460937.089844.917969.121094 1.375.335938 4.972656 3.277344 10.382813 7.722656 14.476563l.082032.078124c7.738281 7.128907 15.351562 14.359376 23 21.574219-.75-2.246093-1.277344-4.359375-1.710938-6.453125-.410156-2.148437-.5-4.171875-.234375-6.117187.257813-1.945313.558594-3.90625.539063-5.964844.03125-2.046875-.0625-4.132813-.152344-6.230469-.082031-2.097656-.140625-4.207031-.355469-6.359375-.230469-4.28125-.882812-8.675781-1.421875-13.167969l1.191406.007813c2.441407 4.566406 4.601563 9.242187 6.394532 13.945313.921875 2.359374 1.691406 4.710937 2.488281 7.082031.675781 2.351562 1.359375 4.71875 1.921875 7.074219.578125 2.355468 1.300781 4.765624 1.917969 7.171874.566406 2.394532.734375 4.695313.390625 6.8125-.160156.929688-.363282 1.847657-.625 2.742188-1.273438 4.355469 1.117187 10.210938 5.628906 14.390625 3.875 3.589844 7.757812 7.175781 11.613281 10.785156 4.890625 4.566407 9.609375 9.292969 14.195313 14.140625-.609375-1.933594-1.0625-3.777344-1.441406-5.605468-.410157-2.148438-.5-4.171876-.234376-6.117188.257813-1.945312.558594-3.90625.539063-5.964844.03125-2.046875-.0625-4.132812-.152344-6.230468-.082031-2.097657-.140625-4.210938-.355469-6.359376-.230468-4.285156-.882812-8.675781-1.421874-13.171874l1.191406.011718c2.441406 4.566406 4.601562 9.242188 6.394531 13.945313.921875 2.355469 1.691406 4.707031 2.488281 7.082031.675782 2.351562 1.363282 4.71875 1.921875 7.070312.578125 2.359376 1.300781 4.769532 1.917969 7.175782.566406 2.390625.734375 4.691406.394531 6.808594-.367187 2.089843-.941406 4.121093-1.921875 5.945312-1.121094 2.089844-.511718 5.164062 1.632813 7.726562 5.558593 6.632813 15.53125 18.675782 20.496093 25.300782 6.679688 9.003906 13.132813 18.191406 18.804688 28.015625.277344.480469.167969 1.09375-.257812 1.453125-.394532.335937-.96875.363281-1.394532.070312-9.503906-6.566406-18.324218-13.679687-26.917968-20.972656-8.796876-7.496094-17.308594-15.222656-25.582032-23.148438-.144531-.140624-.292968-.28125-.4375-.417968-2.667968-2.558594-6.085937-3.363282-8.414062-2.15625-1.710938.886718-3.601563 1.429687-5.546875 1.792968-2.101563.363282-4.398438.21875-6.785157-.324218-2.40625-.59375-4.8125-1.296875-7.167968-1.851563-2.351563-.539062-4.71875-1.199219-7.066406-1.859375-2.375-.773437-4.722657-1.519531-7.082032-2.421875-4.707031-1.753906-9.386718-3.875-13.960937-6.277343l-.023438-1.195313c4.484375.496094 8.867188 1.105469 13.136719 1.292969 2.144531.195312 4.25.230468 6.339844.292968 2.09375.066407 4.171875.140626 6.210937.089844 2.050781 0 4-.324218 5.9375-.601562 1.9375-.285156 3.953125-.21875 6.097657.171875 2.332031.460937 4.707031 1.058593 7.25 1.941406-4.144532-4.34375-8.1875-8.777344-12.128907-13.300781-3.125-3.636719-7.378906-8.503906-11.128906-12.773438-3.984375-4.539062-9.71875-7.074218-14.113281-6.015625-2.144532.519531-4.480469.667969-6.5 1.046875-2.105469.363282-4.398438.21875-6.789063-.324218-2.40625-.59375-4.8125-1.296876-7.167969-1.851563-2.347656-.539063-4.714843-1.203125-7.066406-1.859375-2.371094-.773438-4.722656-1.519531-7.082031-2.421875-4.707031-1.753906-9.386719-3.875-13.957031-6.277344l-.023438-1.195312c4.480469.496093 8.867188 1.105469 13.132813 1.292969 2.148437.195312 4.25.230468 6.339843.292968 2.09375.066406 4.171876.140625 6.210938.089844 2.050781 0 4-.324219 5.9375-.601562 1.9375-.285157 3.953125-.21875 6.097656.171874 4.109375.816407 8.332032 2.015626 13.472656 4.597657-7.722656-8.390625-15.40625-16.847657-23.210937-25.15625l-.300781-.328125c-4.667969-5.125-11.054688-8.371094-16.496094-8.007813-1.539062.101563-3.117188.042969-4.699219-.105469-2.335937-.246093-4.734375-.984374-7.128906-2.097656-2.394531-1.164062-4.765625-2.421875-7.117187-3.539062-2.355469-1.097656-4.695313-2.308594-7.015626-3.511719-2.3125-1.3125-4.609374-2.59375-6.875-4.011719-4.53125-2.792968-8.9375-5.894531-13.15625-9.21875l.296876-1.050781c4.628906 1.632813 9.125 3.335937 13.609374 4.644531zm0 0" fill="url(#h)"/><path d="m511.875 77.738281c1.179688-8.585937-6.15625-15.925781-14.746094-14.746093-35.996094 4.9375-123.152344 22.792968-184.140625 83.785156-60.199219 60.195312-43.910156 125.023437-37.128906 144.285156 1.308594 3.714844 4.230469 6.636719 7.945313 7.945312 19.265624 6.785157 84.089843 23.070313 144.289062-37.125 60.988281-60.992187 78.84375-148.148437 83.78125-184.144531zm0 0" fill="url(#i)"/><path d="m432.378906 257.460938c.769532-.808594 1.53125-1.625 2.289063-2.445313.347656-.375.695312-.753906 1.039062-1.132813.816407-.898437 1.625-1.804687 2.425781-2.714843.230469-.261719.464844-.519531.695313-.78125 1.015625-1.164063 2.019531-2.335938 3.007813-3.511719.242187-.292969.484374-.585938.726562-.878906.75-.902344 1.496094-1.808594 2.230469-2.71875.320312-.394532.640625-.792969.957031-1.191406.6875-.859376 1.367188-1.726563 2.039062-2.59375.28125-.359376.5625-.71875.839844-1.078126.925782-1.207031 1.84375-2.417968 2.746094-3.636718.054688-.078125.109375-.15625.167969-.230469.847656-1.148437 1.679687-2.300781 2.503906-3.457031.273437-.382813.539063-.765625.8125-1.148438.617187-.878906 1.234375-1.761718 1.839844-2.644531.277343-.40625.554687-.808594.828125-1.214844.675781-.988281 1.339844-1.984375 1.996094-2.980469.171874-.257812.34375-.515624.511718-.773437.816406-1.246094 1.621094-2.496094 2.410156-3.746094.207032-.328125.40625-.652343.609376-.976562.59375-.949219 1.179687-1.894531 1.757812-2.84375.257812-.417969.507812-.835938.761719-1.253907.550781-.917968 1.097656-1.835937 1.636719-2.753906.214843-.367187.433593-.734375.644531-1.097656.738281-1.265625 1.464843-2.53125 2.175781-3.800781.078125-.140625.15625-.285157.238281-.425781.632813-1.132813 1.257813-2.269532 1.875-3.40625.214844-.402344.433594-.804688.648438-1.207032.488281-.90625.96875-1.8125 1.445312-2.722656.214844-.410156.429688-.824219.640625-1.234375.542969-1.042969 1.078125-2.089844 1.601563-3.136719.121093-.234375.242187-.46875.359375-.703125.636718-1.273437 1.261718-2.542969 1.875-3.816406.167968-.347656.332031-.695313.5-1.042969.453125-.941406.898437-1.886718 1.339844-2.828125.199218-.421875.394531-.84375.589843-1.269531.429688-.929688.855469-1.859375 1.273438-2.789062.160156-.355469.324219-.714844.484375-1.074219.566406-1.265625 1.125-2.527344 1.667968-3.792969.082032-.183594.160157-.371094.238282-.558594.464844-1.082031.925781-2.164062 1.375-3.246094.167968-.402343.335937-.804687.5-1.207031.371094-.894531.738281-1.792969 1.097656-2.6875.164062-.398437.324219-.800781.484375-1.199219.421875-1.0625.839844-2.121093 1.25-3.179687.074219-.191406.152344-.382813.226563-.574219.480468-1.242187.949218-2.480468 1.410156-3.714844.128906-.355468.257812-.703124.386718-1.058593.335938-.902344.664063-1.804688.988282-2.703125.148437-.40625.292968-.8125.4375-1.21875.324218-.90625.644531-1.8125.957031-2.714844.113281-.328125.230469-.660156.347656-.988281.414063-1.210938.824219-2.417969 1.226563-3.617188.070312-.21875.140625-.433593.214844-.648437.328124-.992188.652343-1.984375.96875-2.96875.125-.386719.246093-.769532.367187-1.15625.269531-.839844.535156-1.679688.792969-2.511719.117187-.378906.234375-.753906.351562-1.128906.316406-1.035157.628906-2.066407.9375-3.089844.039063-.136719.082032-.273437.125-.410156.34375-1.160157.679688-2.3125 1.007813-3.457031.09375-.332032.1875-.660157.285156-.992188.234375-.828125.464844-1.652344.695313-2.472656.101562-.375.207031-.746094.308593-1.117188.230469-.847656.460938-1.6875.683594-2.523437.074219-.28125.152344-.566407.226563-.847657.292968-1.101562.578124-2.199218.855468-3.28125.058594-.222656.109375-.4375.164063-.65625.222656-.871093.441406-1.738281.652343-2.601562.085938-.34375.171876-.683594.253907-1.027344.183593-.761718.367187-1.515625.546875-2.265625.074218-.324219.152344-.648437.230468-.96875.222657-.957031.445313-1.90625.660157-2.84375.015625-.082031.035156-.164062.054687-.246093.230469-1.019532.453125-2.023438.671875-3.019532.066407-.292968.128907-.585937.191407-.875.15625-.71875.308593-1.433594.457031-2.140625.066406-.316406.132812-.628906.199219-.941406.152343-.734375.300781-1.460937.445312-2.179687.050781-.234376.097656-.472657.144531-.710938.1875-.933594.371094-1.855469.546875-2.761719.039063-.207031.074219-.402343.113282-.605469.140624-.714843.273437-1.425781.402343-2.125.054688-.285156.105469-.570312.160157-.855468.113281-.632813.226562-1.257813.339843-1.875.042969-.257813.09375-.515625.136719-.773438.148438-.835937.292969-1.660156.429688-2.472656.003906-.007812.003906-.019531.007812-.03125.136719-.824219.273438-1.625.402344-2.417969.039062-.242187.074218-.476562.113281-.714843.09375-.566407.179687-1.125.265625-1.675782.039062-.242187.078125-.480468.113281-.71875.089844-.582031.175781-1.15625.261719-1.71875.023438-.167968.050781-.339844.074219-.503906.105469-.714844.207031-1.414062.304687-2.097656.023438-.160156.046875-.316406.070313-.480469.050781-.378906.101562-.746094.152343-1.113281.578126-4.285156-.957031-8.253906-3.714843-11.007813l-229.234375 229.234375c1.355468 1.351563 3.007812 2.40625 4.855468 3.0625.191407.066406.386719.132813.585938.203125.101562.035157.195312.066407.300781.101563.355469.121094.722657.246094 1.105469.375.0625.019531.132812.042968.195312.0625.320313.105468.648438.210937.988282.320312.136718.042969.285156.089844.425781.132813.273437.085937.554687.171875.839844.261719.164062.050781.332031.101562.5.152343.285156.085938.574219.167969.867187.253907.175782.050781.347656.101562.523438.152343.316406.09375.644531.183594.976562.277344.15625.042969.308594.089844.472656.132813.492188.136718.996094.269531 1.511719.40625.019531.003906.042969.011718.0625.015624.492188.128907 1 .257813 1.519531.386719.171876.042969.351563.085938.527344.128907.371094.089843.75.179687 1.136719.269531.207031.050781.417969.097656.628906.148437.363281.082032.734375.164063 1.109375.25.222656.046875.445313.097656.671875.144532.394531.085937.796875.167968 1.203125.253906.203125.039062.410156.082031.617188.125.542968.109375 1.09375.214844 1.652344.320312.074218.015625.148437.027344.222656.042969.636718.117187 1.28125.230469 1.933594.34375.199218.035156.402343.066406.605468.097656.464844.078125.929688.15625 1.402344.226563.246094.039062.496094.078125.746094.113281.441406.066406.890625.132813 1.339844.195313.261718.035156.523437.074218.789062.109374.460938.0625.929688.121094 1.398438.179688.253906.03125.5.0625.753906.089844.570312.070312 1.144531.132812 1.726562.191406.15625.019531.3125.035156.472656.050781.738282.078125 1.484376.144531 2.242188.210938.199219.015625.402344.03125.601562.046875.5625.046875 1.128907.089844 1.699219.128906.28125.015625.5625.035156.84375.050781.503907.03125 1.015625.0625 1.527344.085938.300781.015625.601563.03125.902344.042969.515625.023437 1.039062.042968 1.5625.058593.292969.011719.585937.019531.878906.027344.59375.015625 1.195313.027344 1.796875.035156.226562 0 .449219.007813.675781.007813.828125.007812 1.664063.007812 2.503907-.003906.175781 0 .355468-.007813.535156-.007813.667968-.011719 1.339844-.023437 2.019531-.046875.300781-.007812.601563-.019531.902344-.03125.570312-.023438 1.140625-.042969 1.710937-.074219.328125-.015625.660156-.03125.992188-.050781.5625-.03125 1.128906-.070312 1.699218-.109375.328126-.023437.65625-.046875.988282-.070313.617187-.050781 1.242187-.101562 1.871094-.160156.273437-.027344.550781-.046875.828124-.074218.902344-.089844 1.808594-.1875 2.722657-.296876.101562-.011718.199219-.023437.296875-.035156.816406-.101562 1.636718-.207031 2.460937-.324218.3125-.042969.621094-.089844.933594-.136719.625-.09375 1.25-.1875 1.878906-.289063.351563-.058594.703125-.117187 1.058594-.179687.605469-.101563 1.210937-.210938 1.816406-.324219.355469-.0625.710938-.128906 1.070313-.199219.640625-.125 1.285156-.257812 1.929687-.394531.320313-.066406.636719-.128906.957031-.199219.886719-.191406 1.78125-.394531 2.675782-.609375.074218-.019531.148437-.035156.222656-.050781.96875-.234375 1.941406-.484375 2.921875-.746094.300781-.078125.605469-.164062.910156-.25.679688-.1875 1.363281-.375 2.046875-.574219.367188-.109374.734375-.21875 1.097656-.328124.636719-.191407 1.277344-.390626 1.917969-.589844l1.125-.363282c.660157-.214843 1.320313-.441406 1.984375-.667968.347656-.121094.695313-.238282 1.046875-.363282.816407-.289062 1.636719-.589843 2.460938-.898437.1875-.070313.375-.136719.566406-.210937 1.007813-.382813 2.023437-.785157 3.039063-1.203126.285156-.113281.566406-.238281.851562-.355468.738281-.308594 1.476562-.621094 2.214844-.945313.371094-.164062.742187-.332031 1.113281-.496093.664063-.300782 1.328125-.601563 1.992187-.914063.390626-.183594.78125-.367187 1.167969-.554687.671875-.320313 1.34375-.652344 2.015625-.988282.371094-.183594.738282-.367187 1.109375-.554687.773438-.394531 1.546875-.804688 2.320313-1.21875.265625-.140625.53125-.277344.796875-.421875 1.035156-.5625 2.070312-1.140625 3.109375-1.738282.242187-.136718.484375-.285156.726562-.425781.796875-.464843 1.597656-.941406 2.402344-1.429687.367188-.222656.734375-.457032 1.105469-.683594.683593-.425781 1.367187-.855469 2.050781-1.296875.394531-.253906.789062-.511719 1.183594-.773437.675781-.441407 1.351562-.894532 2.023437-1.355469.386719-.261719.769531-.519531 1.15625-.789063.738281-.511718 1.480469-1.042968 2.222657-1.578125.308593-.222656.621093-.4375.929687-.664062 1.046875-.765625 2.09375-1.546875 3.140625-2.355469.160156-.121094.324219-.253906.484375-.382812.886719-.683594 1.773437-1.382813 2.65625-2.101563.355469-.289063.710937-.585937 1.066406-.878906.699219-.574219 1.398438-1.152344 2.09375-1.746094.394531-.335937.789063-.675781 1.183594-1.019531.671875-.582032 1.34375-1.171875 2.015625-1.773438.386719-.347656.777344-.695312 1.167969-1.050781.714843-.648437 1.425781-1.3125 2.140625-1.984375.335937-.316406.671875-.625 1.011718-.945312 1.042969-.996094 2.082032-2.007813 3.125-3.050782 1.113282-1.113281 2.210938-2.238281 3.296876-3.371094.324218-.34375.652343-.695312.980468-1.046874zm0 0" fill="url(#j)"/><path d="m275.050781 477.195312h-38.054687v-113.222656c0-82.519531 80.632812-102.792968 80.632812-102.792968-27.457031 27.457031-42.578125 63.964843-42.578125 102.792968zm0 0" fill="url(#k)"/><path d="m451.246094 148.898438c-2.230469.746093-4.457032 1.339843-6.660156 1.953124-2.203126.617188-4.398438 1.238282-6.574219 1.738282-2.179688.550781-4.339844.789062-6.472657 1.066406-2.132812.265625-4.261718.863281-6.433593 1.78125-2.160157.941406-4.324219 1.972656-6.574219 3.257812 2.398438-2.554687 4.792969-5.109374 7.191406-7.671874l11.824219-12.398438c3.933594-4.15625 8.007813-8.109375 11.988281-12.222656 8.042969-8.121094 16.246094-15.972656 24.839844-23.453125l-.855469-1.679688-7.042969 4.886719-3.542968 2.464844c-1.164063.839844-2.285156 1.734375-3.433594 2.597656-4.515625 3.542969-9.1875 6.984375-13.585938 10.6875-8.972656 7.261719-17.679687 14.832031-26.429687 22.382812-1.660156 1.484376-3.324219 2.972657-4.984375 4.457032.570312-1.597656 1.027344-3.1875 1.238281-4.773438.300781-2.136718.558594-4.300781 1.128907-6.484375.519531-2.179687 1.160156-4.375 1.800781-6.578125.632812-2.207031 1.246093-4.433594 2.011719-6.664062 1.34375-4.488282 3.089843-8.984375 4.761718-13.613282l-1.042968-.308593c-3.351563 4.199219-6.488282 8.589843-9.316407 13.109375-1.4375 2.257812-2.738281 4.550781-4.070312 6.859375-1.21875 2.316406-2.449219 4.652343-3.570313 7.003906-1.136718 2.347656-2.414062 4.714844-3.597656 7.109375-1.132812 2.390625-1.894531 4.789062-2.160156 7.128906-.050782.460938-.089844.917969-.121094 1.375-.335938 4.972656-3.277344 10.382813-7.722656 14.476563l-.082032.078125c-7.738281 7.128906-15.351562 14.359375-23 21.574218.75-2.246093 1.277344-4.359374 1.710938-6.453124.410156-2.144532.5-4.171876.234375-6.117188-.257813-1.945312-.5625-3.90625-.539063-5.964844-.03125-2.046875.0625-4.132812.152344-6.230468.082032-2.097657.140625-4.207032.355469-6.359376.230469-4.28125.882813-8.675781 1.421875-13.167968l-1.191406.007812c-2.441406 4.566406-4.601563 9.242188-6.394532 13.945313-.921874 2.359375-1.691406 4.710937-2.488281 7.082031-.675781 2.351562-1.359375 4.71875-1.921875 7.074219-.578125 2.359375-1.300781 4.765625-1.917968 7.171875-.566407 2.394531-.734376 4.695312-.390626 6.8125.160157.929687.363282 1.847656.625 2.742187 1.273438 4.355469-1.117187 10.210938-5.628906 14.390625-3.875 3.589844-7.757812 7.175782-11.613281 10.785156-4.890625 4.566407-9.609375 9.292969-14.195313 14.140626.609376-1.933594 1.0625-3.777344 1.441407-5.605469.414062-2.148438.5-4.171875.234375-6.117188-.257813-1.945312-.558594-3.90625-.539063-5.964843-.03125-2.046876.0625-4.132813.152344-6.230469.082031-2.097657.140625-4.210938.355469-6.359375.230468-4.285156.878906-8.675782 1.421875-13.171875l-1.191407.011719c-2.441406 4.566406-4.601562 9.242187-6.394531 13.945312-.925781 2.359375-1.691406 4.707031-2.488281 7.082031-.679688 2.351563-1.363281 4.71875-1.921875 7.070313-.582031 2.359375-1.300781 4.769531-1.917969 7.175781-.566406 2.390625-.734375 4.691406-.394531 6.808594.367187 2.089843.9375 4.121093 1.921875 5.945312 1.121094 2.089844.511719 5.164063-1.632812 7.726563-5.558594 6.636718-15.53125 18.675781-20.496094 25.304687-6.679688 9-13.132813 18.1875-18.804688 28.011719-.277344.480469-.167968 1.09375.257813 1.453125.394531.335937.96875.363281 1.394531.070313 9.503906-6.566407 18.324219-13.679688 26.917969-20.972657 8.796875-7.496093 17.308593-15.222656 25.582031-23.148437.144531-.140625.292969-.28125.4375-.417969 2.667969-2.558594 6.085938-3.363281 8.414062-2.15625 1.710938.886719 3.601563 1.429687 5.542969 1.792969 2.109375.363281 4.402344.21875 6.789063-.324219 2.40625-.59375 4.8125-1.292969 7.167968-1.851563 2.351563-.539062 4.71875-1.199218 7.066407-1.859374 2.375-.773438 4.726562-1.519532 7.082031-2.421876 4.707031-1.753906 9.386719-3.875 13.960938-6.277343l.023437-1.195313c-4.484375.496094-8.867187 1.105469-13.136719 1.292969-2.144531.195313-4.25.230469-6.339844.292969-2.089843.066406-4.171874.140625-6.207031.089844-2.050781 0-4.003906-.324219-5.941406-.601563-1.933594-.285156-3.953125-.21875-6.097656.171875-2.328125.460938-4.703125 1.0625-7.246094 1.941406 4.144531-4.34375 8.183594-8.777344 12.128906-13.300781 3.125-3.636719 7.378907-8.503906 11.128907-12.773437 3.984374-4.539063 9.714843-7.074219 14.109374-6.015626 2.148438.519532 4.484376.667969 6.503907 1.046876 2.105469.363281 4.398437.21875 6.789062-.324219 2.402344-.59375 4.8125-1.292969 7.167969-1.851563 2.347656-.539062 4.714844-1.199218 7.0625-1.859375 2.375-.773437 4.726562-1.519531 7.082031-2.421875 4.707031-1.753906 9.386719-3.875 13.960938-6.277344l.023437-1.191406c-4.484375.496094-8.867187 1.101563-13.136718 1.289063-2.144532.195312-4.25.230469-6.339844.292969-2.089844.070312-4.171875.140624-6.207032.089843-2.054687 0-4.003906-.324219-5.941406-.597656-1.9375-.289063-3.953125-.222656-6.097656.171875-4.109375.8125-8.328125 2.011719-13.46875 4.597656 7.71875-8.394531 15.402344-16.851562 23.210938-25.160156l.296874-.328125c4.667969-5.125 11.054688-8.371094 16.5-8.007813 1.539063.101563 3.117188.042969 4.695313-.105468 2.335937-.242188 4.734375-.984375 7.128906-2.097656 2.394531-1.164063 4.765625-2.417969 7.121094-3.535157 2.351563-1.097656 4.691406-2.3125 7.011719-3.515625 2.3125-1.308594 4.613281-2.59375 6.875-4.011718 4.53125-2.789063 8.9375-5.894532 13.15625-9.21875l-.296875-1.046876c-4.628907 1.628907-9.125 3.335938-13.609375 4.640626zm0 0" fill="url(#l)"/><path d="m236.949219 477.195312h38.058593v-79.609374c0-54.132813-34.699218-81.476563-58.574218-93.886719-5.339844-2.777344-10.796875 3.523437-7.246094 8.382812 18.027344 24.691407 27.765625 54.347657 27.765625 85.503907v79.609374zm0 0" fill="url(#m)"/><path d="m462.476562 477.195312h-402.890624c-11.921876 0-21.753907-9.585937-21.777344-21.507812 0-.074219 0-.148438 0-.222656 0-29.644532 11.574218-56.589844 30.457031-76.550782 7.15625-7.308593 15.183594-13.765624 23.921875-19.183593 19.386719-12.027344 42.257812-18.976563 66.753906-18.976563 36.144532 0 68.742188 15.113282 91.839844 39.363282 5.777344 6.0625 14.378906 8.601562 22.480469 6.433593 5.449219-1.46875 11.183593-2.25 17.105469-2.25 18.710937 0 35.589843 7.824219 47.550781 20.363281 6.28125 6.601563 15.863281 8.859376 24.425781 5.757813 9.28125-3.375 19.292969-5.222656 29.738281-5.222656 37.160157 0 68.882813 23.292969 81.375 56.054687 2.929688 7.699219-2.746093 15.941406-10.980469 15.941406zm0 0" fill="url(#n)"/><path d="m253.839844 153.433594 17.21875 17.214844v-31.757813h-17.21875zm0 0" fill="url(#o)"/><path d="m279.433594 106.386719c0-24.730469-7.605469-44.777344-16.984375-44.777344-9.382813 0-16.984375 20.046875-16.984375 44.777344s7.601562 44.78125 16.984375 44.78125c9.378906 0 16.984375-20.050781 16.984375-44.78125zm0 0" fill="url(#p)"/><path d="m246.757812 98.148438c-1.492187-1.199219-3.726562-.21875-3.820312 1.695312-.101562 2.144531-.15625 4.328125-.15625 6.542969 0 5.070312.277344 9.960937.792969 14.589843.191406 1.722657.550781 3.425782.941406 5.117188.480469 2.070312.886719 4.160156 1.210937 6.269531.34375 2.222657.757813 4.4375 1.414063 6.585938 3.605469 11.765625 9.121094 19.289062 15.304687 19.289062 2.328126 0 4.558594-1.070312 6.632813-3.027343v-9.761719c0-23.304688-10.949219-38.160157-22.320313-47.300781zm0 0" fill="url(#q)"/><path d="m281.972656 100.117188c-.085937-1.921876-2.339844-2.90625-3.832031-1.6875-11.246094 9.160156-21.976563 23.945312-21.976563 47.019531v10.070312c1.972657 1.753907 4.085938 2.71875 6.285157 2.71875 7.398437 0 13.835937-10.765625 17.195312-26.675781.21875-1.351562.476563-2.691406.761719-4.027344 1.09375-6.460937 1.710938-13.613281 1.710938-21.148437 0-2.121094-.050782-4.210938-.144532-6.269531zm0 0" fill="url(#r)"/></svg>