<svg xmlns="http://www.w3.org/2000/svg" width="512" height="512" viewBox="0 0 512 512"><path d="M271.45,38H240.68L163,166.37V474H349V166.36ZM256,306a50,50,0,1,1,50-50h0A50,50,0,0,1,256,306Z" fill="#e0e8f5"/><path d="M387,253.53V155.77L292.88,0H219.26L125,155.77v97.76L0,436.53V512H512V436.53ZM125,496H16V441.47L125,281.9Zm246,0H141V160.23L228.28,16h55.58L371,160.23Zm125,0H387V281.9L496,441.47Z" fill="#1ac293"/><path d="M256,198a58,58,0,1,0,58,58h0A58.07,58.07,0,0,0,256,198Zm0,100a42,42,0,1,1,42-42A42,42,0,0,1,256,298Z" fill="#1ac293"/></svg>