<svg xmlns="http://www.w3.org/2000/svg" width="62.002" height="60" viewBox="0 0 62.002 60"><g transform="translate(-1 -2)"><path d="M47.722,34H28.276L21.419,46h33.16Z" fill="#e0e8f5"/><path d="M55.722,48H20.276L13.131,60.5A1,1,0,0,0,14,62H62a1,1,0,0,0,.868-1.5Z" fill="#e0e8f5"/><path d="M46.579,32,40.6,21.543a3,3,0,0,0-5.209,0L29.419,32Z" fill="#e0e8f5"/><path d="M47,48H44V13a3,3,0,0,0-3-3H36a3,3,0,0,0-3,3V48H30V5a3,3,0,0,0-3-3H22a3,3,0,0,0-3,3V48H16V21a3,3,0,0,0-3-3H8a3,3,0,0,0-3,3V48H2a1,1,0,0,0,0,2H47a1,1,0,0,0,0-2ZM14,48H7V21a1,1,0,0,1,1-1h5a1,1,0,0,1,1,1Zm14,0H21V5a1,1,0,0,1,1-1h5a1,1,0,0,1,1,1Zm14,0H35V13a1,1,0,0,1,1-1h5a1,1,0,0,1,1,1Z" fill="#202020"/></g></svg>