<?xml version="1.0" encoding="iso-8859-1"?>
<!-- Generator: Adobe Illustrator 19.0.0, SVG Export Plug-In . SVG Version: 6.00 Build 0)  -->
<svg version="1.1" id="Capa_1" xmlns="http://www.w3.org/2000/svg" xmlns:xlink="http://www.w3.org/1999/xlink" x="0px" y="0px"
	 viewBox="0 0 512 512" style="enable-background:new 0 0 512 512;" xml:space="preserve">
<g transform="translate(1 1)">
	<g>
		<path d="M504.017,217.881L271.571,6.567l-2.221-2.019c-1.526-1.387-3.202-2.514-4.973-3.381c-0.079-0.038-0.161-0.066-0.24-0.104
			c-5.772-2.738-12.503-2.738-18.276,0c-0.079,0.037-0.161,0.065-0.24,0.104c-1.771,0.867-3.447,1.994-4.973,3.381l-2.189,1.99
			L5.983,217.881c-8.718,7.925-9.361,21.418-1.435,30.136c7.925,8.718,21.418,9.361,30.136,1.435l6.983-6.348v246.563
			C41.667,501.449,51.218,511,63,511h106.667h170.667H447c11.782,0,21.333-9.551,21.333-21.333V243.104l6.983,6.348
			c8.718,7.926,22.21,7.283,30.136-1.435C513.378,239.299,512.735,225.807,504.017,217.881z M212.333,468.334v-128
			c0-23.567,19.099-42.667,42.667-42.667s42.667,19.099,42.667,42.667v128H212.333z M425.667,468.334h-85.333v-128
			C340.334,293.202,302.132,255,255,255s-85.333,38.202-85.333,85.333v128H84.333V204.32L255,49.165L425.667,204.32V468.334z"/>
	</g>
</g>
<g>
</g>
<g>
</g>
<g>
</g>
<g>
</g>
<g>
</g>
<g>
</g>
<g>
</g>
<g>
</g>
<g>
</g>
<g>
</g>
<g>
</g>
<g>
</g>
<g>
</g>
<g>
</g>
<g>
</g>
</svg>
