<svg xmlns="http://www.w3.org/2000/svg" width="257.793" height="511.999" viewBox="0 0 257.793 511.999"><g transform="translate(-127.102 -0.001)"><path d="M256.01,473.981a87.544,87.544,0,1,1,87.544-87.544A87.544,87.544,0,0,1,256.01,473.981Z" fill="#e0e8f5"/><path d="M264.014,261.133V234.119l24.232-24.272h.06c11.676,0,48.024-2,71.4-25.4,20.721-20.721,26.573-52.467,24.933-82.232-29.765-1.641-61.511,4.2-82.232,24.933-23.382,23.392-25.383,59.6-25.383,71.346L264.013,211.5V144.224c8.244-8.244,32.517-35.328,32.517-68.445,0-29.305-18.319-55.9-40.521-75.778-22.191,19.87-40.521,46.464-40.521,75.778,0,33.117,24.272,60.2,32.517,68.445V249.557L235,236.55c0-11.746-2-47.954-25.4-71.326-20.731-20.731-52.487-26.573-82.232-24.933-1.641,29.755,4.2,61.511,24.933,82.232,23.412,23.412,59.72,25.4,71.4,25.4h.06L238,262.173c-60.731,8.764-107.545,61.151-107.545,124.263a125.565,125.565,0,1,0,133.56-125.3Zm49.7-122.653c16.518-16.518,42.472-19.93,55.248-20.57-.62,12.766-4,38.65-20.58,55.228s-42.472,19.93-55.248,20.57c.61-12.756,3.992-38.64,20.58-55.218v-.01ZM231.5,75.778c0-23.362,15.938-44.122,24.522-53.607,8.594,9.455,24.5,30.155,24.5,53.607S264.584,119.9,256.01,129.385C247.406,119.931,231.5,99.23,231.5,75.778ZM163.643,211.237c-16.508-16.508-19.93-42.442-20.57-55.228,12.8.64,38.73,4.062,55.228,20.56s19.93,42.472,20.57,55.248C206.1,231.207,180.222,227.856,163.643,211.237ZM256.01,495.992A109.556,109.556,0,1,1,365.566,386.436,109.556,109.556,0,0,1,256.01,495.992Z" fill="#1ac293"/><path d="M231.558,353.87h56.909V337.862H264.014V321.523H248.006v16.339H215.55V394.44h64.913V419H223.554v16.008h24.452v16.338h16.008V435.011h32.457V378.432H231.558Z" fill="#1ac293"/></g></svg>