<svg xmlns="http://www.w3.org/2000/svg" width="512" height="512" viewBox="0 0 512 512"><path d="M439,41.505,294.422,71.751,53.876,312.3,199.7,458.124,440.249,217.578,470.5,73Zm-35.81,67.309a34.336,34.336,0,1,1,48.559-.007l-.007.007a34.316,34.316,0,0,1-48.531.021Z" fill="#e0e8f5"/><path d="M321.55,218.45l-30.757,17.755,5.824-23.589-15.579-3.84-9.514,38.557-30.116,17.384V229.939L270.04,202.42l-11.108-11.559-17.524,16.832V172.174h-16.04v35.519l-17.524-16.832L196.726,202.42l28.642,27.519v34.778l-30.126-17.384-9.514-38.557-15.569,3.84,5.824,23.589L145.226,218.45l-8.02,13.9L167.963,250.1l-23.349,6.757,4.462,15.409,38.146-11.048,30.126,17.394-30.126,17.394-38.146-11.048-4.462,15.409,23.349,6.757-30.757,17.765,8.02,13.885,30.757-17.755-5.824,23.589,15.569,3.84,9.514-38.557,30.126-17.384v34.778L196.726,354.8l11.118,11.569,17.524-16.842V385.05h16.04V349.531l17.524,16.842L270.04,354.8l-28.632-27.519V292.507l30.116,17.384,9.514,38.557,15.579-3.84-5.824-23.589,30.757,17.755,8.02-13.885-30.757-17.765,23.349-6.757L317.7,284.958l-38.156,11.048-30.116-17.394,30.116-17.394L317.7,272.266l4.462-15.409L298.813,250.1l30.757-17.755Z" fill="#1ac293"/><path d="M451.367,0,275.514,36.793,0,312.3,199.7,512l275.5-275.514L512,60.633Zm9.123,228.576L199.7,489.313,22.687,312.3,283.474,51.51l162.68-34.036,48.372,48.372Z" fill="#1ac293"/><path d="M457.4,54.6a41.87,41.87,0,1,0,.047.046ZM446.064,103.15a26.306,26.306,0,1,1,0-37.214A26.307,26.307,0,0,1,446.064,103.15Z" fill="#1ac293"/></svg>