<svg height="512pt" viewBox="0 -5 512.00054 512" width="512pt" xmlns="http://www.w3.org/2000/svg" xmlns:xlink="http://www.w3.org/1999/xlink"><linearGradient id="a"><stop offset="0" stop-color="#ff4974"/><stop offset=".3262" stop-color="#fe4672"/><stop offset=".5324" stop-color="#fb3e6c"/><stop offset=".7054" stop-color="#f52f60"/><stop offset=".8591" stop-color="#ee1a51"/><stop offset="1" stop-color="#e4003d"/></linearGradient><linearGradient id="b" gradientUnits="userSpaceOnUse" x1="269.5164420626" x2="576.7756046762" xlink:href="#a" y1="161.3503149374" y2="468.609477551"/><linearGradient id="c" gradientTransform="matrix(-1.003922 0 0 -1.003922 1595.471137 -6170.655253)" gradientUnits="userSpaceOnUse" x1="4133.9497" x2="4440.0088" xlink:href="#a" y1="-3699.9497" y2="-3393.8909"/><linearGradient id="d"><stop offset="0" stop-color="#00e7b2"/><stop offset=".3524" stop-color="#03e6b1"/><stop offset=".5753" stop-color="#0be1af"/><stop offset=".7622" stop-color="#1adaaa"/><stop offset=".9283" stop-color="#2fcfa4"/><stop offset="1" stop-color="#3ac9a0"/></linearGradient><radialGradient id="e" cx="187.1250654836" cy="125.6500454798" gradientUnits="userSpaceOnUse" r="308.2890861934" xlink:href="#d"/><radialGradient id="f" cx="187.124764307" cy="125.6503466564" gradientUnits="userSpaceOnUse" r="308.2906924686" xlink:href="#d"/><linearGradient id="g"><stop offset="0" stop-color="#3ac9a0" stop-opacity="0"/><stop offset=".0351" stop-color="#38c69d" stop-opacity=".035294"/><stop offset=".4167" stop-color="#23aa82" stop-opacity=".415686"/><stop offset=".7511" stop-color="#169971" stop-opacity=".752941"/><stop offset="1" stop-color="#11936b"/></linearGradient><linearGradient id="h" gradientUnits="userSpaceOnUse" x1="318.9058907356" x2="276.2331822036" xlink:href="#g" y1="467.579453579" y2="376.9000985368"/><linearGradient id="i" gradientUnits="userSpaceOnUse" x1="409.9380239686" x2="267.6052757512" xlink:href="#g" y1="382.2836302618" y2="239.9508820444"/><linearGradient id="j" gradientUnits="userSpaceOnUse" x1="473.2895178566" x2="375.0970113508" xlink:href="#g" y1="295.1069590776" y2="196.9144525718"/><linearGradient id="k" gradientUnits="userSpaceOnUse" x1="416.9648756154" x2="381.0633197968" xlink:href="#g" y1="409.627554168" y2="333.3367104064"/><linearGradient id="l" gradientUnits="userSpaceOnUse" x1="234.9774091824" x2="114.3119079222" xlink:href="#g" y1="297.7716692422" y2="177.106167982"/><linearGradient id="m" gradientUnits="userSpaceOnUse" x1="225.7261675602" x2="98.1921331526" xlink:href="#g" y1="403.1368972614" y2="275.6028628538"/><linearGradient id="n"><stop offset="0" stop-color="#3b395f"/><stop offset=".0633" stop-color="#37355a"/><stop offset=".4033" stop-color="#232543"/><stop offset=".7232" stop-color="#171b35"/><stop offset="1" stop-color="#131830"/></linearGradient><linearGradient id="o" gradientUnits="userSpaceOnUse" x1="376.4912582244" x2="376.4912582244" xlink:href="#n" y1="172.9500312942" y2="268.3914903434"/><linearGradient id="p" gradientUnits="userSpaceOnUse" x1="369.190034695" x2="369.190034695" xlink:href="#n" y1="287.7512225836" y2="369.3270129298"/><linearGradient id="q"><stop offset="0" stop-color="#131830" stop-opacity="0"/><stop offset="1" stop-color="#131830"/></linearGradient><linearGradient id="r" gradientUnits="userSpaceOnUse" x1="405.0161959714" x2="356.1358361446" xlink:href="#q" y1="316.2790717044" y2="298.9344117026"/><linearGradient id="s"><stop offset="0" stop-color="#ffc738"/><stop offset=".4286" stop-color="#ffbb23"/><stop offset="1" stop-color="#ffa700"/></linearGradient><linearGradient id="t" gradientUnits="userSpaceOnUse" x1="363.3230141348" x2="389.659502314" xlink:href="#s" y1="313.9681436526" y2="313.9681436526"/><linearGradient id="u"><stop offset="0" stop-color="#e58200" stop-opacity="0"/><stop offset=".1879" stop-color="#e07d07" stop-opacity=".188235"/><stop offset=".4612" stop-color="#d16d1a" stop-opacity=".462745"/><stop offset=".7853" stop-color="#b9553a" stop-opacity=".784314"/><stop offset="1" stop-color="#a64153"/></linearGradient><linearGradient id="v" gradientUnits="userSpaceOnUse" x1="391.7640240026" x2="368.9198792848" xlink:href="#u" y1="296.3990066916" y2="273.5548619738"/><linearGradient id="w" gradientUnits="userSpaceOnUse" x1="361.3099497404" x2="391.6687518048" xlink:href="#s" y1="272.0587170172" y2="272.0587170172"/><linearGradient id="x" gradientUnits="userSpaceOnUse" x1="135.5094197756" x2="135.5094197756" xlink:href="#n" y1="172.9500312942" y2="268.3914903434"/><linearGradient id="y" gradientUnits="userSpaceOnUse" x1="142.8054229106" x2="142.8054229106" xlink:href="#n" y1="287.7512225836" y2="369.3270129298"/><linearGradient id="z" gradientUnits="userSpaceOnUse" x1="179.048713778" x2="116.8746196116" xlink:href="#q" y1="321.6042755612" y2="299.542487258"/><linearGradient id="A" gradientUnits="userSpaceOnUse" x1="122.341175686" x2="148.6776638652" xlink:href="#s" y1="313.9681436526" y2="313.9681436526"/><linearGradient id="B" gradientUnits="userSpaceOnUse" x1="150.7821855538" x2="127.938040836" xlink:href="#u" y1="296.3990066916" y2="273.5548619738"/><linearGradient id="C" gradientUnits="userSpaceOnUse" x1="120.3281112916" x2="150.686913356" xlink:href="#s" y1="272.0587170172" y2="272.0587170172"/><linearGradient id="D"><stop offset="0" stop-color="#fffcf8"/><stop offset=".1875" stop-color="#faf8f6"/><stop offset=".4041" stop-color="#eceef2"/><stop offset=".6353" stop-color="#d5dcea"/><stop offset=".875" stop-color="#b5c4df"/><stop offset="1" stop-color="#a1b5d8"/></linearGradient><linearGradient id="E" gradientUnits="userSpaceOnUse" x1="256.000339" x2="256.000339" xlink:href="#D" y1="200.4712478256" y2="305.3945493804"/><linearGradient id="F" gradientUnits="userSpaceOnUse" x1="256.000339" x2="256.000339" xlink:href="#D" y1="326.6757883286" y2="416.359353139"/><linearGradient id="G" gradientUnits="userSpaceOnUse" x1="303.8650309394" x2="235.5142062758" y1="363.8937870658" y2="339.6402362522"><stop offset="0" stop-color="#a1b5d8" stop-opacity="0"/><stop offset=".2564" stop-color="#98abca" stop-opacity=".254902"/><stop offset=".7358" stop-color="#8292a6" stop-opacity=".737255"/><stop offset="1" stop-color="#748290"/></linearGradient><linearGradient id="H"><stop offset="0" stop-color="#ff4974"/><stop offset=".2115" stop-color="#fd4470"/><stop offset=".4685" stop-color="#f83565"/><stop offset=".748" stop-color="#ef1d52"/><stop offset="1" stop-color="#e4003d"/></linearGradient><linearGradient id="I" gradientUnits="userSpaceOnUse" x1="241.5238841522" x2="270.4767938478" xlink:href="#H" y1="355.4989913018" y2="355.4989913018"/><linearGradient id="J" gradientUnits="userSpaceOnUse" x1="272.790432489" x2="247.676821698" y1="336.1844355516" y2="311.0708247606"><stop offset="0" stop-color="#e4003d" stop-opacity="0"/><stop offset=".5838" stop-color="#bd294b" stop-opacity=".584314"/><stop offset="1" stop-color="#a64153"/></linearGradient><linearGradient id="K" gradientUnits="userSpaceOnUse" x1="239.3108384954" x2="272.6857234244" xlink:href="#H" y1="309.426099348" y2="309.426099348"/><path d="m497.246094 111.207031c-10.355469-3.789062-21.6875.539063-27.078125 9.726563-16.984375-28.035156-39.410157-52.566406-66.421875-72.390625-43.28125-31.757813-94.613282-48.542969-148.441406-48.542969-53.828126 0-105.160157 16.785156-148.441407 48.542969-42.390625 31.105469-73.507812 73.800781-89.984375 123.46875-3.910156 11.777343 2.472656 24.492187 14.246094 28.402343 11.78125 3.90625 24.496094-2.472656 28.402344-14.25 13.523437-40.773437 39.085937-75.832031 73.917968-101.390624 35.519532-26.0625 77.65625-39.839844 121.859376-39.839844 44.203124 0 86.339843 13.777344 121.859374 39.839844 20.742188 15.222656 38.199219 33.8125 51.78125 54.972656-10.335937-1.554688-20.683593 4.308594-24.417968 14.503906-4.261719 11.652344 1.726562 24.558594 13.378906 28.820312l46.78125 17.117188c.113281.039062.226562.066406.339844.105469.390625.136719.789062.261719 1.1875.378906.214844.058594.425781.125.640625.179687.402343.101563.8125.1875 1.222656.269532.207031.042968.417969.089844.625.125.433594.074218.875.125 1.3125.171875.179687.019531.359375.050781.539063.0625.613281.054687 1.230468.082031 1.851562.082031.582031 0 1.164062-.023438 1.738281-.070312.140625-.011719.277344-.03125.414063-.046876.445312-.042968.886718-.089843 1.328125-.15625.167969-.027343.335937-.070312.507812-.101562.410157-.074219.816407-.148438 1.21875-.246094.1875-.042968.378907-.101562.566407-.152344.382812-.101562.761718-.207031 1.136718-.328124.054688-.015626.109375-.027344.167969-.046876.109375-.035156.214844-.089843.324219-.125.496094-.175781.984375-.363281 1.464844-.570312.207031-.089844.414062-.175781.617187-.269531.46875-.222657.929687-.457031 1.386719-.707031.140625-.082032.292968-.152344.433594-.234376.546874-.316406 1.078124-.664062 1.597656-1.027343.199218-.140625.394531-.292969.589844-.441407.347656-.257812.6875-.527343 1.019531-.804687.179687-.15625.363281-.308594.539062-.46875.378907-.34375.742188-.699219 1.097657-1.066406.097656-.101563.203124-.195313.300781-.300781.464843-.496094.90625-1.019532 1.324219-1.558594.03125-.039063.054687-.078125.085937-.117188.375-.492187.726563-1 1.0625-1.527344.089844-.140624.171875-.28125.257813-.425781.261718-.425781.503906-.859375.738281-1.308593.09375-.183594.191406-.367188.28125-.554688.203125-.417969.390625-.84375.570312-1.28125.082031-.203125.171875-.398438.246094-.605469.027344-.070312.0625-.136719.085937-.207031l17.117188-46.78125c4.265625-11.65625-1.726562-24.558594-13.378906-28.824219zm0 0" fill="url(#b)"/><path d="m14.753906 391.121094c10.355469 3.789062 21.691406-.535156 27.078125-9.726563 16.984375 28.035157 39.410157 52.570313 66.421875 72.390625 43.28125 31.757813 94.613282 48.542969 148.441406 48.542969 53.828126 0 105.160157-16.785156 148.441407-48.542969 42.390625-31.105468 73.507812-73.800781 89.988281-123.46875 3.90625-11.777344-2.472656-24.492187-14.25-28.398437-11.78125-3.910157-24.492188 2.472656-28.398438 14.25-13.527343 40.769531-39.089843 75.828125-73.921874 101.386719-35.519532 26.0625-77.65625 39.839843-121.859376 39.839843-44.199218 0-86.335937-13.773437-121.855468-39.839843-20.746094-15.21875-38.199219-33.8125-51.78125-54.972657 10.335937 1.554688 20.683594-4.304687 24.414062-14.503906 4.265625-11.652344-1.726562-24.554687-13.378906-28.820313l-46.78125-17.117187c-.113281-.039063-.226562-.066406-.335938-.105469-.394531-.136718-.789062-.261718-1.191406-.375-.214844-.0625-.425781-.125-.640625-.179687-.402343-.105469-.808593-.191407-1.21875-.273438-.210937-.039062-.417969-.089843-.628906-.125-.433594-.070312-.871094-.125-1.3125-.171875-.179687-.019531-.359375-.046875-.539063-.0625-.613281-.050781-1.226562-.082031-1.847656-.082031h-.003906c-.582031 0-1.164062.027344-1.738281.070313-.136719.011718-.277344.035156-.414063.046874-.441406.042969-.886718.089844-1.324218.160157-.171876.027343-.339844.066406-.511719.097656-.40625.074219-.816407.152344-1.21875.246094-.1875.046875-.375.105469-.5625.15625-.382813.097656-.761719.203125-1.136719.324219-.058594.019531-.113281.03125-.167969.046874-.113281.039063-.214843.089844-.328125.128907-.496094.171875-.984375.363281-1.464844.570312-.207031.085938-.414062.175781-.617187.269531-.46875.21875-.929687.457032-1.382813.707032-.144531.078125-.296874.148437-.4375.230468-.546874.316407-1.074218.664063-1.59375 1.027344-.203124.140625-.394531.292969-.59375.441406-.347656.257813-.683593.527344-1.015624.808594-.183594.152344-.363282.308594-.539063.46875-.378906.339844-.746094.695313-1.101563 1.0625-.097656.101563-.203124.199219-.300781.304688-.460937.496094-.90625 1.015625-1.324219 1.558594-.027343.039062-.054687.078124-.085937.117187-.371094.488281-.726563 1-1.058594 1.523437-.089843.140626-.175781.285157-.261719.425782-.257812.425781-.503906.863281-.738281 1.308594-.09375.183593-.1875.367187-.28125.554687-.203125.417969-.386719.847656-.566406 1.28125-.085937.203125-.171875.402344-.25.605469-.027344.070312-.058594.136718-.085937.210937l-17.117188 46.78125c-4.265625 11.652344 1.726562 24.554688 13.378906 28.820313zm0 0" fill="url(#c)"/><path d="m443.734375 251.164062c0 103.679688-84.050781 187.730469-187.734375 187.730469-103.679688 0-187.730469-84.050781-187.730469-187.730469 0-103.683593 84.050781-187.734374 187.730469-187.734374 103.683594 0 187.734375 84.050781 187.734375 187.734374zm0 0" fill="url(#e)"/><path d="m443.734375 251.164062c0 54.917969-23.585937 104.332032-61.183594 138.652344-33.378906 30.496094-77.792969 49.082032-126.550781 49.082032-1.097656 0-2.199219-.011719-3.296875-.03125-102.15625-1.753907-184.4375-85.125-184.4375-187.703126 0-103.679687 84.054687-187.734374 187.734375-187.734374s187.734375 84.054687 187.734375 187.734374zm0 0" fill="url(#f)"/><path d="m382.550781 389.816406c-8.878906 8.109375-18.535156 15.382813-28.847656 21.679688-28.460937 17.382812-61.910156 27.402344-97.703125 27.402344-1.097656 0-2.199219-.011719-3.296875-.03125-3.289063-.074219-6.554687-.238282-9.800781-.53125l-71.683594-71.585938c7.644531-34.457031 35.742188-61.195312 70.902344-66.835938 4.535156-.71875 9.160156-1.101562 13.878906-1.101562 23.992188 0 45.699219 9.730469 61.414062 25.445312zm0 0" fill="url(#h)"/><path d="m431.378906 318.28125c-10.558594 27.558594-27.421875 51.996094-48.832031 71.535156-8.878906 8.109375-18.53125 15.382813-28.84375 21.679688l-138.652344-138.652344c-12-11.058594-19.519531-26.90625-19.519531-44.496094 0-33.398437 27.070312-60.46875 60.46875-60.46875 17.589844 0 33.441406 7.515625 44.496094 19.519532zm0 0" fill="url(#i)"/><path d="m443.734375 251.164062c0 14.15625-1.566406 27.953126-4.542969 41.21875-.054687.25-.113281.496094-.175781.757813-2.699219 11.824219-6.515625 23.222656-11.335937 34.070313l-63.808594-63.808594-24.632813-24.621094c-.6875-.632812-1.351562-1.277344-1.992187-1.941406-.332032-.332032-.644532-.664063-.964844-1.003906-.3125-.332032-.625-.675782-.933594-1.027344-.25-.28125-.5-.5625-.75-.851563-.660156-.777343-1.304687-1.566406-1.917968-2.386719-.269532-.359374-.546876-.734374-.816407-1.109374-.273437-.371094-.53125-.753907-.800781-1.140626-1.578125-2.300781-2.976562-4.730468-4.199219-7.269531-.210937-.414062-.40625-.839843-.59375-1.277343-.195312-.425782-.382812-.859376-.558593-1.292969-.1875-.4375-.363282-.875-.53125-1.308594-.175782-.445313-.339844-.890625-.496094-1.339844-.15625-.445312-.3125-.890625-.457032-1.335937-.1875-.539063-.363281-1.089844-.519531-1.640625-.09375-.320313-.1875-.652344-.28125-.984375-.019531-.082032-.050781-.175782-.070312-.269532-.105469-.40625-.207031-.808593-.3125-1.222656v-.023437c-.113281-.445313-.214844-.902344-.308594-1.355469-.011719-.011719-.023437-.03125-.011719-.054688-.082031-.351562-.15625-.703124-.226562-1.066406-.167969-.839844-.3125-1.691406-.4375-2.550781-.050782-.335937-.09375-.675781-.132813-1.019531-.117187-.839844-.199219-1.6875-.269531-2.539063-.042969-.488281-.074219-.984375-.09375-1.472656-.054688-.984375-.085938-1.980469-.085938-2.988281 0-30.378906 24.632813-55.011719 55.015626-55.011719.996093 0 1.992187.03125 2.976562.082031.496094.023438.984375.050782 1.480469.09375.851562.074219 1.703125.15625 2.554687.269532.300782.03125.609375.074218.910156.125.289063.042968.570313.082031.859376.136718.59375.09375 1.195312.195313 1.785156.308594.363281.074219.726562.148438 1.089844.230469.46875.09375.933593.207031 1.402343.320312h.019531c.433594.101563.871094.21875 1.308594.34375.03125 0 .070313.007813.113282.019531.351562.101563.707031.195313 1.046874.300782.550782.15625 1.097657.332031 1.636719.519531.4375.132813.863281.28125 1.289063.4375.03125.007813.058594.019531.089844.027344.4375.15625.863281.324219 1.296874.488281.4375.167969.871094.34375 1.308594.53125.433594.175781.871094.363281 1.296875.558594.425781.1875.847657.394531 1.273438.59375.425781.207031.851562.414062 1.265625.621094.011718 0 .023437.011718.03125.011718.789062.414063 1.578125.839844 2.34375 1.273438 1.648437.945312 3.238281 1.972656 4.769531 3.089844.375.273437.75.539062 1.113281.820312.238282.175781.476563.363281.714844.550781.34375.269531.675781.539063 1.003906.820313.5625.457031 1.109375.921875 1.652344 1.410156.300781.269531.601562.539062.890625.820312.859375.796876 1.699219 1.636719 2.507813 2.5.15625.152344.292968.300782.4375.453126l7.8125 7.8125c12.144531 24.847656 18.960937 52.777343 18.960937 82.296874zm0 0" fill="url(#j)"/><path d="m439.191406 292.382812c-.054687.25-.113281.496094-.175781.757813-.167969.734375-.34375 1.472656-.519531 2.207031-.351563 1.472656-.726563 2.9375-1.121094 4.398438-.1875.726562-.394531 1.453125-.589844 2.179687-.210937.726563-.417968 1.449219-.625 2.175781-1.058594 3.589844-2.207031 7.128907-3.464844 10.632813-.007812.011719-.019531.03125-.019531.050781-1.015625 2.8125-2.09375 5.589844-3.238281 8.328125-.289062.695313-.578125 1.371094-.871094 2.054688-.289062.683593-.589844 1.371093-.890625 2.042969-.800781 1.804687-1.628906 3.597656-2.480469 5.382812-.027343.0625-.058593.125-.089843.1875-.449219.921875-.902344 1.835938-1.359375 2.75-.457032.910156-.921875 1.8125-1.402344 2.714844-.464844.902344-.953125 1.804687-1.441406 2.699218-.039063.070313-.082032.144532-.113282.214844-.457031.820313-.914062 1.640625-1.371093 2.449219-1.003907 1.773437-2.042969 3.527344-3.097657 5.257813h.007813c1.347656-.519532 2.664063-1.078126 3.984375-1.660157-1.328125.601563-2.644531 1.152344-3.992188 1.683594h-.011718c-.582032.941406-1.160156 1.886719-1.761719 2.820313-.59375.933593-1.195313 1.867187-1.804687 2.789062-1.828126 2.78125-3.734376 5.496094-5.707032 8.164062-.433594.589844-.871094 1.171876-1.304687 1.75-.210938.273438-.414063.539063-.625.8125-.382813.515626-.785157 1.023438-1.179688 1.535157-2.136719 2.734375-4.347656 5.402343-6.640625 8.003906-.382812.449219-.777344.894531-1.171875 1.328125-.632812.714844-1.273437 1.421875-1.929687 2.125-.664063.738281-1.347656 1.464844-2.042969 2.191406 0 .011719 0 .011719-.019531.019532-.746094.800781-1.515625 1.585937-2.292969 2.375-.683594.707031-1.378906 1.402343-2.085937 2.085937-.082032.082031-.164063.164063-.257813.25-.664063.664063-1.335937 1.316406-2.023437 1.960937-.910157.871094-1.84375 1.742188-2.777344 2.59375-.117188 0-.167969.050782-.167969.144532v.007812c-3.039063 2.769532-6.171875 5.457032-9.394531 8.03125l-73.757813-73.675781c.167969-.734375.34375-1.472656.53125-2.195313.082031-.363281.175781-.726562.277344-1.089843.105469-.40625.21875-.800781.335937-1.203125.082032-.3125.175782-.625.269532-.933594.125-.425781.257812-.84375.382812-1.265625.15625-.476563.3125-.953125.476563-1.433594.175781-.527343.363281-1.046875.550781-1.574219.207031-.570312.414062-1.140624.632812-1.703124.363282-.921876.734376-1.835938 1.121094-2.734376.515625-1.175781 1.046875-2.335937 1.617188-3.476562.195312-.414062.402344-.820312.613281-1.222656.246094-.488282.507813-.976563.765625-1.464844.539062-1.003906 1.101562-1.992188 1.679688-2.964844.507812-.839844 1.027343-1.660156 1.546874-2.480468.050782-.070313.101563-.144532.144532-.214844.300781-.457032.613281-.914063.914062-1.371094.308594-.457031.621094-.902344.941406-1.347656.324219-.445313.644532-.882813.976563-1.328125 1.160156-1.574219 2.394531-3.101563 3.683594-4.574219.125-.144531.246093-.28125.371093-.425781.167969-.195313.34375-.394531.519532-.589844.21875-.238281.4375-.476563.652344-.714844.375-.40625.75-.800781 1.132812-1.195312.371094-.394531.757812-.785157 1.140625-1.171875.382813-.382813.777344-.765625 1.171875-1.140625.300781-.289063.589844-.570313.890625-.839844 1.359375-1.265625 2.761719-2.488281 4.214844-3.652344.363281-.300781.722656-.589843 1.097656-.871093.425781-.339844.859375-.671876 1.308594-.996094 1.511719-1.128906 3.078125-2.21875 4.6875-3.234375.289062-.195313.589843-.382813.878906-.558594 2.117187-1.320313 4.304687-2.53125 6.546875-3.640625.3125-.15625.632812-.3125.953125-.46875.351563-.175781.71875-.34375 1.082031-.507812 1.003906-.464844 2.019532-.902344 3.046875-1.328126 1.648438-.671874 3.339844-1.304687 5.050781-1.867187.363282-.125.738282-.246094 1.109376-.363281.632812-.195313 1.277343-.390625 1.917968-.578125.476563-.136719.953125-.269531 1.441406-.394531.539063-.148438 1.089844-.292969 1.640626-.425782.527343-.125 1.066406-.25 1.605468-.375.714844-.152344 1.441406-.308594 2.167969-.445312.132813-.019532.257813-.050782.394531-.070313.21875-.042969.4375-.082031.664063-.125.050781-.011719.101562-.023437.15625-.03125.195312-.03125.382812-.0625.578125-.09375.03125-.011719.074218-.019531.117187-.019531.164063-.042969.339844-.0625.507813-.09375.152344-.019531.300781-.050781.457031-.0625.039063-.011719.070313-.011719.113281-.019531.113282-.023438.226563-.03125.351563-.054688.011719 0 .03125-.007812.050781-.007812.0625-.011719.125-.019531.1875-.019531.03125-.011719.0625-.011719.105469-.023438.03125 0 .0625-.011719.09375-.011719l.183593-.03125c.210938-.03125.425782-.0625.644532-.082031.09375-.019531.199218-.03125.300781-.039062.238281-.03125.46875-.0625.707031-.09375.207032-.023438.414063-.042969.621094-.0625.28125-.03125.5625-.0625.851562-.09375.113282-.011719.21875-.023438.332032-.03125.050781-.011719.113281-.011719.164062-.011719.15625-.019531.3125-.03125.46875-.050781.082032-.011719.164063-.011719.25-.023438.246094-.019531.488282-.039062.734375-.050781.179688-.019531.355469-.03125.53125-.039063.070313-.011718.144531-.011718.21875-.011718.152344-.007813.308594-.019532.464844-.03125.144531-.007813.300781-.019532.457031-.019532.082032-.011718.164063-.019531.25-.019531.082032 0 .164063-.011719.246094-.011719.042969 0 .09375-.011718.136719 0 .144531-.011718.300781-.019531.445312-.03125.21875-.011718.4375-.019531.652344-.019531h.125c.238281-.011719.476563-.023437.714844-.023437.582031-.007813 1.171875-.019532 1.765625-.019532.632812 0 1.253906.011719 1.875.019532.199218.011718.394531.011718.582031.023437.46875.007813.921875.03125 1.378906.050781.074219 0 .15625 0 .230469.011719.558594.027344 1.117188.058594 1.667969.101563.113281.011718.226562.011718.34375.019531.445312.03125.878906.074219 1.316406.113281.101563.011719.195313.023438.289063.03125.613281.054688 1.214843.125 1.816406.199219.09375.007812.1875.019531.277344.03125.332031.039062.664062.082031.996093.132812.074219.011719.148438.011719.21875.03125.167969.011719.320313.03125.476563.0625.09375.011719.1875.019531.269531.042969.054687.007812.105469.007812.15625.019531.414063.0625.828125.125 1.234375.195313.019531 0 .050781 0 .074219.023437.507812.082031 1.015625.175781 1.523437.269531.101563.019532.207032.039063.3125.0625 1.480469.269532 2.945313.601563 4.398438.972657.964844.25 1.917968.507812 2.871094.789062.476562.144531.957031.28125 1.421874.433594 1.421876.4375 2.820313.925781 4.199219 1.453125 1.402344.519531 2.78125 1.089844 4.140625 1.691406.421875.195313.847656.382813 1.285156.589844.425782.199219.851563.394531 1.277344.601562 1.324219.652344 2.644532 1.339844 3.917969 2.066407.820313.453125 1.617187.921875 2.417969 1.398437.457031.28125.902344.550782 1.335937.839844.394531.25.789063.5 1.183594.757812.46875.3125.925781.613282 1.371094.933594.351562.238282.714843.488282 1.066406.746094 3.539063 2.53125 6.867187 5.351562 9.9375 8.421875zm0 0" fill="url(#k)"/><path d="m393.6875 378.761719c-3.554688 3.835937-7.269531 7.53125-11.136719 11.054687-8.878906 8.109375-18.535156 15.382813-28.847656 21.679688-7.664063 4.675781-15.691406 8.824218-24.03125 12.382812-11.222656 4.800782-23.003906 8.535156-35.234375 11.085938l-171.550781-171.5625-24.625-24.621094c-10.910157-10.0625-17.757813-24.46875-17.757813-40.472656 0-30.378906 24.625-55.011719 55.003906-55.011719 16.003907 0 30.421876 6.84375 40.472657 17.753906zm0 0" fill="url(#l)"/><path d="m329.671875 423.878906c-22.609375 9.667969-47.511719 15.019532-73.671875 15.019532-1.097656 0-2.199219-.011719-3.296875-.03125-47.402344-.820313-90.527344-19.199219-123.136719-48.9375-.105468-.152344-.1875-.238282-.25-.238282-.789062-.726562-1.578125-1.453125-2.367187-2.1875-.019531-.03125-.039063-.042968-.058594-.0625-1.597656-1.523437-3.175781-3.058594-4.722656-4.636718-2.082031-2.117188-4.105469-4.273438-6.085938-6.480469-.300781-.332031-.601562-.675781-.902343-1.015625-.644532-.726563-1.277344-1.453125-1.910157-2.191406-.039062-.050782-.070312-.089844-.125-.144532-.664062-.777344-1.316406-1.566406-1.96875-2.355468-1.441406-1.742188-2.863281-3.523438-4.242187-5.328126-1.339844-1.742187-2.648438-3.515624-3.921875-5.3125-2.570313-3.597656-5.007813-7.300781-7.324219-11.085937-.652344-1.058594-1.285156-2.136719-1.917969-3.207031 0-.007813-.007812-.007813-.007812-.007813-.625-1.082031-1.234375-2.160156-1.847657-3.246093-1.816406-3.269532-3.546874-6.597657-5.175781-9.980469-.550781-1.128907-1.078125-2.261719-1.597656-3.402344s-1.035156-2.292969-1.535156-3.441406c-.496094-1.152344-.984375-2.3125-1.460938-3.476563-.382812-.933594-.757812-1.867187-1.121093-2.808594-.15625-.394531-.3125-.789062-.457032-1.183593-.300781-.777344-.589844-1.566407-.871094-2.34375-.144531-.382813-.289062-.769531-.425781-1.152344-.375-1.046875-.746093-2.09375-1.097656-3.140625-.40625-1.203125-.800781-2.410156-1.183594-3.621094-.757812-2.394531-1.472656-4.824218-2.148437-7.269531 0-.03125-.007813-.0625-.019532-.105469-.3125-1.152344-.613281-2.304687-.902343-3.464844-.054688-.175781-.09375-.351562-.136719-.527343-.277344-1.121094-.550781-2.253907-.808594-3.382813v-.007812c0-.011719 0-.011719 0-.011719.914063-1.191406 1.867188-2.355469 2.863282-3.484375.125-.144531.25-.28125.375-.425781.164062-.195313.339843-.394531.519531-.589844.214843-.242187.433593-.480469.652343-.71875.375-.402344.746094-.796875 1.128907-1.191406.375-.394531.757812-.789063 1.140625-1.171875.382812-.382813.777344-.769532 1.171875-1.140625.300781-.289063.59375-.570313.890625-.839844 1.359375-1.265625 2.761718-2.488281 4.214844-3.652344.363281-.300781.722656-.589843 1.097656-.871093 1.816406-1.421876 3.703125-2.757813 5.652344-4.015626.40625-.269531.820312-.527343 1.222656-.777343 2.117187-1.316407 4.304687-2.53125 6.546875-3.640625.320312-.152344.632812-.308594.953125-.464844.351562-.175781.714844-.34375 1.078125-.507812.496093-.230469 1.007812-.457032 1.515625-.675782 2.144531-.941406 4.34375-1.78125 6.585937-2.519531.363281-.125.734375-.25 1.109375-.363281.628906-.195313 1.273438-.394532 1.917969-.582032.476563-.132812.953125-.269531 1.441406-.394531.539063-.144531 1.089844-.289062 1.636719-.421875.53125-.125 1.070312-.25 1.609375-.375.714844-.15625 1.441406-.3125 2.164063-.445312.136718-.019532.261718-.050782.394531-.070313.21875-.042969.4375-.085937.664062-.125.054688-.011719.105469-.023437.15625-.03125.199219-.03125.382813-.0625.582031-.09375.03125-.011719.074219-.019531.113282-.019531.167968-.042969.34375-.0625.507812-.09375.15625-.023438.300782-.054688.457032-.0625.042968-.011719.074218-.011719.117187-.023438.113281-.019531.226563-.03125.351563-.050781.007812 0 .03125-.011719.050781-.011719.0625-.007812.125-.019531.1875-.019531.03125-.011719.0625-.011719.101562-.019531.03125 0 .0625-.011719.09375-.011719.0625-.007812.125-.019531.1875-.03125.207031-.03125.425781-.0625.644531-.082031.09375-.023438.195313-.03125.300782-.042969.4375-.050781.882812-.113281 1.328125-.15625.03125-.007812.050781-.007812.082031-.007812.25-.03125.507812-.0625.769531-.082031.101563-.011719.214844-.023438.332031-.03125.0625-.011719.132813-.011719.195313-.023438.144531-.007812.289063-.019531.4375-.039062.082031-.011719.164063-.011719.246094-.023438.25-.019531.488281-.039062.738281-.050781.175781-.019531.351562-.03125.527344-.039063.074218-.011718.144531-.011718.21875-.011718.15625-.011719.3125-.019532.464844-.03125.148437-.011719.304687-.019532.457031-.019532.085937-.011718.167969-.023437.25-.023437s.167969-.007813.25-.007813c.039062 0 .09375-.011718.132812 0 .148438-.011718.300781-.023437.445313-.03125.21875-.011718.4375-.023437.65625-.023437h.125c.238281-.007813.476562-.019531.714844-.019531.582031-.011719 1.171874-.019532 1.761718-.019532.632813 0 1.265625.007813 1.886719.019532.1875.011718.363281.011718.539063.019531.476562.011719.945312.03125 1.410156.054687.074218 0 .15625 0 .230468.007813.558594.03125 1.121094.0625 1.667969.105469.113281.007812.230469.007812.34375.019531.445313.03125.878907.074219 1.316407.113281.101562.011719.195312.023438.289062.03125.613281.050781 1.214844.125 1.816406.199219.09375.007812.1875.019531.28125.027343.332032.042969.664063.085938.996094.136719.070312.007813.144531.007813.214844.03125.167968.007813.324218.03125.476562.0625.09375.007813.1875.019531.273438.039063.050781.011718.101562.011718.152344.023437.417968.0625.832031.125 1.234374.195313.023438 0 .054688 0 .074219.019531.507813.085937 1.015625.175781 1.523438.269531.105469.023438.207031.042969.3125.0625 1.480469.269532 2.945312.601563 4.398437.976563.964844.25 1.917969.507812 2.871094.789062.476562.144531.953125.277344 1.421875.433594 1.421875.4375 2.820313.921875 4.199219 1.453125 1.402344.519531 2.78125 1.089844 4.140625 1.691406.425781.195313.847656.382813 1.285156.589844.425781.195312.851563.394531 1.277344.601562 1.324219.652344 2.644531 1.335938 3.917969 2.0625.820312.457032 1.617187.921876 2.417968 1.402344.457032.28125.902344.546875 1.335938.839844.394531.25.789062.496094 1.183594.757812.46875.308594.925781.609376 1.371093.933594.351563.238282.714844.488282 1.066407.746094 3.535156 2.53125 6.867187 5.351562 9.9375 8.421875zm0 0" fill="url(#m)"/><path d="m431.5 198.308594c0 30.378906-24.628906 55.007812-55.007812 55.007812-30.382813 0-55.007813-24.628906-55.007813-55.007812 0-30.382813 24.625-55.007813 55.007813-55.007813 30.378906 0 55.007812 24.625 55.007812 55.007813zm0 0" fill="url(#o)"/><path d="m432.355469 285.546875c2.386719 2.386719 4.613281 4.917969 6.660156 7.59375-2.699219 11.824219-6.515625 23.222656-11.335937 34.070313-3.3125 7.488281-7.117188 14.730468-11.359376 21.65625 1.347657-.515626 2.675782-1.078126 3.992188-1.65625-1.328125.601562-2.65625 1.148437-4.003906 1.679687-.195313.082031-.394532.164063-.589844.226563-.726562.28125-1.453125.550781-2.179688.820312-.207031.082031-.425781.15625-.644531.226562-.621093.230469-1.242187.445313-1.875.65625-1.578125.539063-3.175781 1.035157-4.792969 1.480469-1.617187.46875-3.246093.894531-4.894531 1.277344-1.640625.382813-3.300781.726563-4.980469 1.035156-.828124.15625-1.667968.300781-2.507812.4375-1.679688.28125-3.382812.507813-5.105469.695313-.847656.09375-1.699219.183594-2.558593.257812 0 0-.011719 0-.023438 0-.851562.074219-1.710938.144532-2.582031.195313-.863281.054687-1.730469.105469-2.605469.136719-1.480469.070312-2.976562.101562-4.480469.101562-30.179687 0-57.480469-12.320312-77.125-32.234375.164063-.734375.34375-1.472656.53125-2.199219.082031-.363281.175781-.726562.277344-1.089844.105469-.402343.21875-.796874.332031-1.203124.085938-.3125.179688-.621094.269532-.933594.125-.425782.261718-.839844.386718-1.265625.152344-.476563.308594-.953125.476563-1.429688.175781-.53125.363281-1.046875.550781-1.578125.207031-.570312.414062-1.140625.628906-1.699218.363282-.921876.738282-1.835938 1.121094-2.738282.519531-1.171875 1.046875-2.335937 1.621094-3.472656.195312-.417969.402344-.820312.609375-1.226562.25-.488282.507812-.972657.769531-1.460938.539062-1.007812 1.097656-1.992188 1.679688-2.96875.507812-.839844 1.027343-1.65625 1.546874-2.476562.050782-.074219.101563-.144532.144532-.21875.300781-.457032.613281-.914063.914062-1.371094.308594-.453125.621094-.902344.941406-1.347656.320313-.445313.644532-.878907.976563-1.324219 1.171875-1.566407 2.394531-3.09375 3.679687-4.574219.125-.148438.25-.28125.375-.425781.164063-.199219.34375-.394531.519532-.59375.21875-.238281.433594-.476563.652344-.714844.375-.40625.746093-.796875 1.132812-1.191406.371094-.394531.753906-.789063 1.140625-1.171875.382813-.386719.777344-.769532 1.171875-1.140625.300781-.292969.589844-.570313.890625-.84375 1.359375-1.261719 2.757813-2.488281 4.210937-3.648438.363282-.300781.726563-.59375 1.101563-.871093.425781-.34375.859375-.675782 1.304687-.996094 1.515626-1.132813 3.082032-2.222656 4.691407-3.238282.289062-.195312.589843-.382812.878906-.558593 2.117187-1.316407 4.304687-2.53125 6.546875-3.640625.308594-.15625.632812-.3125.953125-.464844.351563-.179688.714844-.34375 1.078125-.507812 1.007812-.46875 2.023438-.902344 3.050781-1.328126 1.648438-.675781 3.339844-1.308593 5.050781-1.867187.363282-.125.734376-.25 1.109376-.363281.632812-.199219 1.273437-.394532 1.917968-.582032.476563-.132812.953125-.269531 1.441406-.394531.539063-.144531 1.089844-.289062 1.636719-.425781.53125-.121094 1.070313-.246094 1.609375-.371094.714844-.15625 1.441406-.3125 2.167969-.445312.132813-.023438.257813-.054688.394531-.074219.21875-.039063.433594-.082031.664063-.125.050781-.007813.101562-.019531.152343-.03125.199219-.03125.386719-.0625.582032-.089844.03125-.011719.074218-.023437.113281-.023437.167969-.03125.34375-.0625.519531-.082032.144532-.03125.300782-.050781.445313-.070312.042969-.011719.074219-.011719.117187-.023438.113282-.019531.226563-.03125.351563-.050781.007812 0 .03125-.011719.050781-.011719.0625-.007812.125-.019531.1875-.019531.03125-.011719.0625-.011719.101562-.019531.03125 0 .0625-.011719.09375-.011719.242188-.03125.476563-.074219.71875-.09375.03125-.011719.070313-.019531.113282-.019531.09375-.023438.195312-.03125.300781-.042969.4375-.050781.882813-.113281 1.328125-.15625.277344-.03125.558594-.0625.847656-.09375.117188-.007812.21875-.019531.332032-.03125.054687-.007812.117187-.007812.167968-.007812.15625-.023438.3125-.03125.464844-.054688.085938-.007812.167969-.007812.25-.019531.25-.019531.488281-.042969.738281-.050781.175781-.023438.351563-.03125.527344-.042969.074219-.007812.144531-.007812.21875-.007812.15625-.011719.3125-.023438.46875-.03125.144531-.011719.300781-.023438.453125-.023438.085938-.007812.167969-.019531.25-.019531.085938 0 .167969-.011719.25-.011719.101562-.007812.21875-.007812.320312-.019531.082032 0 .175782-.011719.257813-.011719.21875-.007812.4375-.019531.65625-.019531h.125c.238281-.011719.476563-.019531.714844-.019531.582031-.011719 1.171875-.023438 1.761719-.023438.632812 0 1.253906.011719 1.878906.023438.195312.007812.394531.007812.582031.019531.464844.011719.921875.03125 1.378906.050781.070313 0 .15625 0 .226563.011719.558594.03125 1.121094.0625 1.667968.101562.117188.011719.230469.011719.34375.023438.445313.03125.882813.070312 1.316407.113281.105469.007812.199219.019531.292969.03125.609374.050781 1.210937.125 1.8125.195312.09375.011719.1875.019532.28125.03125.332031.042969.664062.085938.996093.136719.070313.007813.144531.007813.21875.03125.164063.007813.320313.03125.476563.0625.09375.007813.1875.019531.269531.039063.050781.011718.101563.011718.15625.019531.414063.0625.828125.125 1.234375.199219.019531 0 .050781 0 .070312.019531.507813.082031 1.015626.175781 1.523438.269531.105469.023438.210938.042969.3125.0625 1.484375.269532 2.945312.601563 4.398438.976563.964843.246093 1.917968.507812 2.875.785156.476562.148437.953124.28125 1.417968.4375 1.421875.433594 2.824219.921875 4.203125 1.453125 1.398438.515625 2.777344 1.085938 4.136719 1.6875.425781.199219.851562.386719 1.285156.59375.425782.195312.851563.394531 1.277344.601562 1.328125.652344 2.644531 1.335938 3.921875 2.0625.816406.457032 1.617187.921876 2.414063 1.402344.457031.277344.902343.546875 1.339843.839844.394531.246094.789063.496094 1.183594.753906.464844.3125.921875.613282 1.367187.933594.351563.242188.714844.488281 1.070313.75 3.535156 2.53125 6.863281 5.351562 9.933594 8.421875zm0 0" fill="url(#p)"/><path d="m439.015625 293.140625c-2.699219 11.824219-6.515625 23.222656-11.335937 34.070313-3.3125 7.488281-7.117188 14.730468-11.359376 21.65625-.195312.09375-.394531.167968-.601562.25-.726562.28125-1.453125.550781-2.179688.820312-.207031.082031-.425781.15625-.640624.226562-.625.230469-1.246094.445313-1.878907.65625-1.574219.527344-3.183593 1.023438-4.792969 1.480469-1.617187.46875-3.246093.882813-4.894531 1.277344-1.636719.382813-3.296875.726563-4.980469 1.035156-.828124.15625-1.667968.300781-2.507812.4375-1.691406.269531-3.390625.507813-5.101562.695313-.851563.09375-1.703126.183594-2.5625.257812 0 0-.011719 0-.023438 0-.847656.074219-1.710938.144532-2.582031.195313-.859375.054687-1.730469.105469-2.601563.136719l-13.953125-13.972657-.207031-.175781c-.414062-.34375-.808594-.726562-1.152344-1.132812-.226562-.269532-.445312-.539063-.640625-.828126 0 0 0 0-.011719-.011718-.1875-.277344-.375-.578125-.539062-.878906l-.011719-.011719c-.238281-.457031-.445312-.933594-.609375-1.429688-.179687-.488281-.300781-1.007812-.382812-1.527343-.148438-.816407-.179688-1.660157-.105469-2.507813l4.855469-50.460937c.007812-.132813.03125-.257813.0625-.394532.144531-.695312.464844-1.328125.921875-1.847656.007812-.019531.019531-.039062.039062-.0625 0-.007812-.007812-.007812-.007812-.019531-.042969-.050781-.074219-.09375-.105469-.144531-.007812-.011719-.019531-.03125-.03125-.054688-.289062-.183594-.570312-.414062-.828125-.652344-.25-.25-.476563-.527344-.675781-.828125-.132813-.210937-.246094-.417969-.351563-.644531l-5.589843-12.375c-.382813-.847656-.425782-1.742188-.199219-2.539062.136719-.023438.261719-.054688.394531-.074219.21875-.039063.4375-.082031.664062-.125.054688-.007813.105469-.019531.15625-.03125.0625-.007813.117188-.019531.175782-.019531.136718-.03125.273437-.050782.40625-.074219.113281-.019531.226562-.027344.34375-.050781.09375-.019532.195312-.039063.289062-.050782.144532-.03125.300782-.050781.445313-.070312.15625-.03125.3125-.054688.46875-.074219.007812 0 .03125-.011719.050781-.011719.0625-.007812.125-.019531.1875-.019531.03125-.011719.0625-.011719.101562-.019531.03125 0 .0625-.011719.09375-.011719l.1875-.03125c.207032-.03125.425782-.0625.644532-.082031.09375-.023438.195312-.03125.300781-.042969.238281-.03125.464844-.0625.703125-.09375.210938-.019531.417969-.039063.625-.0625.277344-.03125.558594-.0625.847656-.09375.117188-.007813.21875-.019531.332032-.027344.054687-.011719.117187-.011719.167968-.011719.15625-.019531.3125-.03125.464844-.050781.085938-.011719.167969-.011719.25-.023437.25-.019532.488281-.039063.738281-.050782.175781-.019531.351563-.03125.527344-.039062.0625-.011719.136719-.023438.199219-.023438.152344-.007812.320312-.019531.488281-.019531.226563-.023437.464844-.03125.703125-.042969.082031 0 .164062-.007812.25-.007812.101562-.011719.214844-.011719.320312-.023438.082032 0 .175782-.007812.257813-.007812.21875-.011719.4375-.023438.65625-.023438h.121094c.242187-.007812.476562-.019531.71875-.019531.578125-.011719 1.171875-.023437 1.761719-.023437.632812 0 1.253906.011718 1.878906.023437.195312.011719.394531.011719.578125.019531.46875.011719.925781.03125 1.378906.054688.074219 0 .15625 0 .230469.007812.671875.023438 1.347656.0625 2.011718.125.101563 0 .21875.011719.320313.019532.332031.03125.664063.0625.996094.09375.101562.011718.195312.023437.289062.03125.613281.054687 1.214844.125 1.816407.199218.09375.007813.1875.019532.28125.03125.332031.039063.664062.082032.996093.132813.070313.011719.144531.011719.214844.03125.167969.011719.324219.03125.476563.0625.09375.011719.1875.019531.273437.042969.050781.007812.101563.007812.152344.019531.417969.0625.832031.125 1.234375.195313.539062.082031 1.078125.179687 1.597656.292968.105469.019532.207031.039063.3125.0625 1.480469.289063 2.945312.609375 4.398438.972656.964843.25 1.917968.507813 2.871093.789063.476563.144531.957031.28125 1.421875.433594 1.421875.449219 2.820313.925781 4.203125 1.453125 1.398438.519531 2.777344 1.089844 4.136719 1.691406.425781.195312.851562.382812 1.285156.589844.425782.199218.851563.394531 1.277344.601562 1.328125.652344 2.644531 1.339844 3.917969 2.066406.820312.453126 1.621093.921876 2.417969 1.398438.457031.28125.902343.550781 1.339843.839844.394531.25.785157.5 1.179688.757812.46875.3125.925781.613282 1.371093.933594.351563.238281.714844.488281 1.066407.746094 3.539062 2.53125 6.867187 5.351562 9.9375 8.421875 2.386719 2.390625 4.617187 4.921875 6.660156 7.597656zm0 0" fill="url(#r)"/><path d="m386.171875 342.195312-5.5 4.546876c-2.425781 2.007812-5.9375 2.007812-8.359375 0l-5.5-4.546876c-2.460938-2.035156-3.75-5.15625-3.445312-8.332031l4.851562-50.464843c.203125-2.105469 1.972656-3.710938 4.089844-3.710938h8.367187c2.113281 0 3.882813 1.605469 4.085938 3.710938l4.851562 50.464843c.308594 3.175781-.984375 6.296875-3.441406 8.332031zm0 0" fill="url(#t)"/><path d="m384.761719 283.398438c-.203125-2.105469-1.972657-3.710938-4.085938-3.710938h-8.367187c-1.246094 0-2.367188.566406-3.121094 1.457031l16.992188 16.992188zm0 0" fill="url(#v)"/><path d="m391.332031 266.375-5.589843 12.382812c-.8125 1.804688-2.605469 2.953126-4.597657 2.953126h-9.308593c-1.988282 0-3.78125-1.148438-4.597657-2.953126l-5.589843-12.382812c-.386719-.839844-.425782-1.738281-.199219-2.539062 4.867187-.9375 9.894531-1.429688 15.039062-1.429688 5.148438 0 10.175781.492188 15.042969 1.441406.230469.804688.175781 1.6875-.199219 2.527344zm0 0" fill="url(#w)"/><path d="m190.515625 198.308594c0 30.378906-24.625 55.007812-55.007813 55.007812-30.378906 0-55.007812-24.628906-55.007812-55.007812 0-30.382813 24.628906-55.007813 55.007812-55.007813 30.382813 0 55.007813 24.625 55.007813 55.007813zm0 0" fill="url(#x)"/><path d="m212.636719 324.203125c-.3125.320313-.632813.632813-.957031.933594-1.140626 1.152343-2.300782 2.25-3.496094 3.320312-.050782.039063-.113282.09375-.164063.144531-.570312.507813-1.152343 1.027344-1.730469 1.523438-1.855468 1.621094-3.765624 3.164062-5.726562 4.628906-.652344.488282-1.316406.972656-1.980469 1.453125-.558593.402344-1.128906.796875-1.699219 1.191407-.78125.539062-1.566406 1.066406-2.355468 1.574218-.570313.375-1.152344.75-1.730469 1.113282-.136719.082031-.28125.175781-.417969.257812-.671875.414062-1.355468.820312-2.042968 1.222656-.703126.414063-1.417969.832032-2.132813 1.226563-.550781.308593-1.101563.609375-1.652344.902343-.277343.152344-.558593.300782-.839843.445313-.382813.195313-.757813.390625-1.140626.589844-.457031.238281-.910156.46875-1.367187.683593-.632813.3125-1.277344.625-1.917969.914063-.644531.300781-1.289062.589844-1.941406.882813-.757812.339843-1.515625.664062-2.28125.972656-.769531.320312-1.535156.632812-2.3125.933594-.675781.261718-1.347656.519531-2.035156.769531-.425782.164062-.859375.308593-1.285156.453125-.550782.199218-1.097657.386718-1.648438.5625-.707031.238281-1.410156.464844-2.117188.683594-.800781.25-1.605468.488281-2.40625.714843-1.515624.4375-3.027343.84375-4.574218 1.195313-1.753906.425781-3.515625.785156-5.300782 1.121094-.828124.152343-1.667968.300781-2.519531.433593-1.679687.28125-3.382812.507813-5.09375.695313-.828125.09375-1.648437.175781-2.476562.25-.0625.007812-.117188.007812-.167969.019531-.839844.070313-1.679688.132813-2.519531.1875-.871094.050781-1.742188.101563-2.613281.132813-1.484376.074218-2.976563.105468-4.480469.105468-14.0625 0-27.484375-2.679687-39.820313-7.550781-10.390625-17-18.148437-35.773437-22.714844-55.769531.925782-1.195313 1.878907-2.355469 2.863282-3.496094.125-.148438.25-.28125.375-.425781.164062-.199219.34375-.394531.519531-.59375.21875-.238281.433594-.476563.652344-.714844.375-.40625.746093-.796875 1.132812-1.191406.371094-.394531.753907-.789063 1.140625-1.171875.382813-.386719.777344-.769532 1.167969-1.140625.304687-.292969.59375-.570313.894531-.84375 1.355469-1.261719 2.757813-2.488281 4.210938-3.648438.363281-.300781.726562-.59375 1.097656-.871093 1.816406-1.421876 3.703125-2.761719 5.652344-4.015626.40625-.269531.820312-.527343 1.226562-.777343 2.113282-1.316407 4.304688-2.53125 6.542969-3.640625.320313-.15625.632813-.3125.953125-.464844.351562-.179688.71875-.34375 1.078125-.507812.5-.230469 1.007813-.457032 1.515625-.675782 2.148438-.941406 4.34375-1.785156 6.585938-2.519531.363281-.125.734374-.25 1.109374-.363281.632813-.199219 1.273438-.394532 1.917969-.582032.476563-.132812.953125-.269531 1.441407-.394531.539062-.144531 1.089843-.289062 1.636718-.425781.53125-.121094 1.070313-.246094 1.609375-.371094.714844-.15625 1.441407-.3125 2.167969-.445312.132812-.023438.257812-.054688.394531-.074219.21875-.039063.433594-.082031.664063-.125.050781-.007813.101562-.019531.152344-.03125.199218-.03125.386718-.0625.582031-.089844.03125-.011719.074219-.023437.117187-.023437.164063-.03125.339844-.0625.515625-.082032.148438-.03125.304688-.050781.449219-.070312.039062-.011719.070312-.011719.113281-.023438.113281-.019531.226563-.03125.351563-.050781.011718 0 .03125-.011719.050781-.011719.0625-.007812.125-.019531.1875-.019531.03125-.011719.0625-.011719.105469-.019531.03125 0 .0625-.011719.09375-.011719.238281-.03125.476562-.074219.714844-.09375.03125-.011719.070312-.019531.113281-.019531.09375-.023438.199219-.03125.300781-.042969.4375-.050781.882812-.113281 1.328125-.15625.03125-.007812.050781-.007812.082031-.007812.25-.03125.507813-.0625.769532-.085938.101562-.007812.21875-.019531.332031-.03125.0625-.007812.132812-.007812.195312-.019531.148438-.011719.292969-.019531.4375-.042969.082031-.007812.164063-.007812.25-.019531.246094-.019531.488281-.042969.734375-.050781.175782-.023438.351563-.03125.527344-.042969.074219-.007812.148438-.007812.21875-.007812.15625-.011719.3125-.023438.46875-.03125.144531-.011719.300781-.023438.457031-.023438.082031-.007812.164063-.019531.246094-.019531.085937 0 .167969-.011719.25-.011719.105469-.007812.21875-.007812.320313-.019531.085937 0 .179687-.011719.261718-.011719.214844-.007812.433594-.019531.652344-.019531h.125c.238281-.011719.476562-.019531.714844-.019531.582031-.011719 1.171875-.023438 1.761718-.023438.632813 0 1.265626.011719 1.890626.023438.183593.007812.363281.007812.539062.019531.476562.011719.941406.03125 1.410156.050781.070313 0 .15625 0 .226563.011719.558593.03125 1.121093.0625 1.667969.101562.117187.011719.230468.011719.34375.023438.445312.03125.882812.070312 1.316406.113281.105468.007812.199218.019531.292968.03125.609376.050781 1.210938.125 1.8125.195312.09375.011719.1875.019532.28125.03125.332032.042969.664063.085938.996094.136719.070313.007813.144532.007813.21875.03125.164063.007813.320313.03125.476563.0625.09375.007813.1875.019531.269531.039063.050781.011718.101562.011718.15625.019531.414062.0625.828125.125 1.234375.199219.019531 0 .050781 0 .070313.019531.507812.082031 1.015624.175781 1.523437.269531.105469.023438.210937.042969.3125.0625 1.484375.269532 2.945313.601563 4.398437.976563.964844.246093 1.917969.507812 2.875.785156.476563.148437.953126.28125 1.417969.4375 1.421875.433594 2.820313.921875 4.203125 1.453125 1.398438.515625 2.777344 1.085938 4.136719 1.6875.425781.199219.851563.386719 1.285156.59375.425781.195312.851563.394531 1.277344.601562 1.328125.652344 2.644531 1.335938 3.917969 2.0625.820312.457032 1.621094.921876 2.417968 1.402344.457032.277344.902344.546875 1.339844.839844.394532.246094.785156.496094 1.179688.753906.46875.3125.925781.613282 1.371094.933594.351562.242188.714843.488281 1.066406.75 3.539062 2.53125 6.867187 5.351562 9.9375 8.421875 10.433594 10.414063 17.953125 23.753906 21.265625 38.65625zm0 0" fill="url(#y)"/><path d="m212.632812 324.203125c-.308593.324219-.628906.628906-.949218.9375-18.574219 18.382813-43.777344 30.070313-71.695313 31.195313l-13.945312-13.972657-.214844-.175781c-2.460937-2.03125-3.742187-5.148438-3.449219-8.328125l4.855469-50.460937c.09375-.882813.464844-1.671876 1.027344-2.300782-.050781-.066406-.09375-.132812-.144531-.214844-.789063-.507812-1.460938-1.230468-1.859376-2.125l-5.589843-12.382812c-.386719-.839844-.425781-1.738281-.199219-2.539062.707031-.132813 1.417969-.265626 2.136719-.375.507812-.09375 1.03125-.171876 1.539062-.242188.402344-.066406.816407-.117188 1.230469-.171875.46875-.054687.9375-.121094 1.417969-.160156.574219-.066407 1.148437-.121094 1.722656-.175781.5625-.050782 1.136719-.09375 1.714844-.132813.585937-.039063 1.175781-.066406 1.761719-.09375 1.164062-.050781 2.339843-.078125 3.519531-.078125 2.152343 0 4.289062.078125 6.402343.253906.5625.050782 1.125.09375 1.671876.160156 1.136718.105469 2.273437.253907 3.398437.414063.546875.082031 1.109375.175781 1.65625.265625.640625.09375 1.285156.214844 1.910156.347656 15.792969 3.035156 29.898438 10.777344 40.824219 21.703125 10.425781 10.414063 17.953125 23.746094 21.257812 38.652344zm0 0" fill="url(#z)"/><path d="m145.191406 342.195312-5.5 4.546876c-2.425781 2.007812-5.9375 2.007812-8.363281 0l-5.5-4.546876c-2.457031-2.035156-3.746094-5.15625-3.441406-8.332031l4.851562-50.464843c.203125-2.105469 1.972657-3.710938 4.089844-3.710938h8.367187c2.113282 0 3.882813 1.605469 4.085938 3.710938l4.851562 50.464843c.304688 3.175781-.984374 6.296875-3.441406 8.332031zm0 0" fill="url(#A)"/><path d="m143.78125 283.398438c-.203125-2.105469-1.972656-3.710938-4.085938-3.710938h-8.367187c-1.25 0-2.367187.566406-3.121094 1.457031l16.992188 16.992188zm0 0" fill="url(#B)"/><path d="m150.351562 266.375-5.589843 12.382812c-.816407 1.804688-2.605469 2.953126-4.597657 2.953126h-9.308593c-1.992188 0-3.78125-1.148438-4.597657-2.953126l-5.589843-12.382812c-.386719-.839844-.425781-1.738281-.199219-2.539062 4.867188-.9375 9.894531-1.429688 15.039062-1.429688 5.148438 0 10.175782.492188 15.042969 1.441406.226563.804688.175781 1.6875-.199219 2.527344zm0 0" fill="url(#C)"/><path d="m316.472656 228.347656c0 33.398438-27.074218 60.472656-60.472656 60.472656s-60.472656-27.074218-60.472656-60.472656c0-33.398437 27.074218-60.472656 60.472656-60.472656s60.472656 27.074219 60.472656 60.472656zm0 0" fill="url(#E)"/><path d="m340.785156 366.753906c-21.59375 21.886719-51.609375 35.4375-84.785156 35.4375s-63.191406-13.550781-84.785156-35.4375c8.628906-38.882812 43.304687-67.941406 84.785156-67.941406 23.988281 0 45.699219 9.730469 61.414062 25.445312 11.464844 11.449219 19.738282 26.105469 23.371094 42.496094zm0 0" fill="url(#F)"/><path d="m340.785156 366.75c-.339844.355469-.691406.691406-1.042968 1.03125-20.417969 20.210938-48.125 33.058594-78.820313 34.292969l-15.328125-15.363281-.234375-.1875c-2.707031-2.234376-4.117187-5.660157-3.792969-9.160157l5.335938-55.472656c.101562-.972656.511718-1.839844 1.128906-2.527344-.058594-.074219-.101562-.148437-.160156-.238281-.867188-.554688-1.601563-1.351562-2.042969-2.335938l-6.144531-13.609374c-.425782-.925782-.46875-1.910157-.222656-2.792969.78125-.148438 1.558593-.296875 2.355468-.414063.554688-.101562 1.128906-.1875 1.6875-.261718.441406-.074219.898438-.132813 1.355469-.191407.511719-.058593 1.027344-.132812 1.554687-.179687.632813-.070313 1.265626-.128906 1.898438-.1875.617188-.0625 1.25-.105469 1.882812-.148438.644532-.042968 1.292969-.074218 1.9375-.101562 1.28125-.0625 2.574219-.089844 3.867188-.089844 2.367188 0 4.71875.089844 7.039062.277344.617188.0625 1.238282.105468 1.839844.179687 1.25.117188 2.496094.277344 3.734375.453125.601563.089844 1.21875.191406 1.820313.296875.707031.101563 1.414062.234375 2.101562.382813 17.363282 3.335937 32.867188 11.84375 44.878906 23.855468 11.464844 11.449219 19.738282 26.105469 23.371094 42.492188zm0 0" fill="url(#G)"/><path d="m266.644531 386.527344-6.046875 5.003906c-2.667968 2.207031-6.527344 2.207031-9.195312 0l-6.046875-5.003906c-2.703125-2.234375-4.121094-5.664063-3.785157-9.15625l5.335938-55.476563c.222656-2.316406 2.167969-4.082031 4.492188-4.082031h9.199218c2.328125 0 4.273438 1.765625 4.496094 4.082031l5.332031 55.476563c.339844 3.488281-1.082031 6.921875-3.78125 9.15625zm0 0" fill="url(#I)"/><path d="m265.09375 321.894531c-.222656-2.316406-2.167969-4.082031-4.496094-4.082031h-9.199218c-1.371094 0-2.597657.625-3.429688 1.601562l18.683594 18.683594zm0 0" fill="url(#J)"/><path d="m272.316406 303.179688-6.144531 13.609374c-.894531 1.984376-2.867187 3.25-5.058594 3.25h-10.230469c-2.1875 0-4.160156-1.265624-5.054687-3.25l-6.144531-13.609374c-.425782-.925782-.46875-1.910157-.222656-2.792969 5.351562-1.03125 10.878906-1.574219 16.539062-1.574219s11.183594.542969 16.535156 1.585938c.25.882812.191406 1.855468-.21875 2.78125zm0 0" fill="url(#K)"/></svg>