<svg xmlns="http://www.w3.org/2000/svg" width="64" height="64" viewBox="0 0 64 64"><g transform="translate(0 0)"><path d="M57.782,23.067c-8.8-8.806-23.755-8.184-33.326,1.388S14.261,48.976,23.067,57.781c8.908,8.909,23.87,8.07,33.327-1.388,9.571-9.571,10.194-24.521,1.388-33.326ZM52.151,52.15c-7.142,7.142-18.3,7.936-24.841,1.389-6.466-6.467-5.843-17.61,1.39-24.839,7.143-7.143,18.3-7.934,24.842-1.388C60.006,33.775,59.383,44.919,52.151,52.15Z" fill="#1ac293"/><path d="M52.126,28.723c-5.767-5.765-15.663-4.962-22.014,1.388-6.451,6.452-7.074,16.327-1.388,22.014,5.767,5.766,15.662,4.961,22.013-1.389C57.467,44.005,57.558,34.155,52.126,28.723ZM47.908,47.907c-4.639,4.642-12.069,5.677-16.356,1.389-4.126-4.127-3.5-11.464,1.389-16.356,4.64-4.641,12.07-5.676,16.356-1.389,4.332,4.331,3.2,11.762-1.389,16.356Z" fill="#1ac293"/><path d="M38.6,38.6c-1.932,1.933-2.115,4.315-1.387,5.043.631.632,3.025.627,5.042-1.389,1.778-1.779,2.159-4.272,1.388-5.043C43.008,36.576,40.614,36.581,38.6,38.6Z" fill="#1ac293"/><path d="M47.883,32.965c-3.059-3.06-9.158-2.98-13.528,1.389-4.112,4.112-4.735,10.181-1.389,13.528,3.059,3.06,9.159,2.981,13.528-1.389C50.923,42.065,50.91,35.994,47.883,32.965Zm-4.217,10.7c-2.185,2.185-5.982,3.278-7.87,1.389-1.727-1.727-1.079-5.4,1.387-7.871,2.19-2.189,5.985-3.275,7.871-1.389C46.89,37.63,45.938,41.393,43.666,43.665Z" fill="#1ac293"/><path d="M40.457,39.043,18.621,17.207,17.492,8.62a1,1,0,0,0-.285-.577L9.457.293A1,1,0,0,0,7.873.52l-2.1,3.838L1.707.293A1,1,0,1,0,.293,1.707L4.358,5.772.52,7.873A1,1,0,0,0,.293,9.457l7.75,7.75a1,1,0,0,0,.577.285l8.587,1.129L39.043,40.457a1,1,0,1,0,1.414-1.414ZM9.217,15.553,2.651,8.986l3.18-1.741L14.884,16.3ZM7.245,5.831l1.741-3.18,6.567,6.566.745,5.667Z" fill="#e0e8f5"/><path d="M25.956,12.16a1,1,0,0,0,.707.293l5.494-.021,3.351,3.351a1,1,0,1,0,1.414-1.414l-3.351-3.351.021-5.5a1,1,0,0,0-.293-.71L28.784.293a1,1,0,0,0-1.551.17L25.6,3.039,24.557,2a1,1,0,1,0-1.414,1.414l1.039,1.039L21.607,6.09a1,1,0,0,0-.171,1.551Zm2.3-9.571L31.6,5.932l-.012,3.094L27.045,4.488ZM25.631,5.9l4.538,4.538-3.094.012L23.732,7.108Z" fill="#e0e8f5"/><path d="M12.432,33.4l.021-5.5a1,1,0,0,0-.293-.711L7.641,22.674a1,1,0,0,0-1.551.17L4.453,25.42,3.414,24.381A1,1,0,0,0,2,25.8l1.039,1.039L.463,28.471a1,1,0,0,0-.17,1.551l4.52,4.519a1,1,0,0,0,.707.293l5.493-.022,3.352,3.352a1,1,0,1,0,1.414-1.414Zm-6.5-.567L2.589,29.489l1.9-1.207L9.025,32.82Zm4.508-1.426L5.9,26.868l1.206-1.9,3.344,3.343Z" fill="#e0e8f5"/></g></svg>