<svg xmlns="http://www.w3.org/2000/svg" width="61.005" height="61.998" viewBox="0 0 61.005 61.998"><g transform="translate(-1.495 -1)"><path d="M55.888,25.062l-13-5.475a1.006,1.006,0,0,0-.777,0l-13,5.473a1,1,0,0,0-.612.922V43.206a1,1,0,0,0,.355.764l13,10.948a1,1,0,0,0,1.288,0l13-10.948a.992.992,0,0,0,.356-.764V25.983a1,1,0,0,0-.61-.921ZM53.5,35a5.006,5.006,0,0,1-5,5h-4a2.966,2.966,0,0,1-1-.184V45a1,1,0,0,1-2,0V39.814a2.966,2.966,0,0,1-1,.184h-4a5.006,5.006,0,0,1-5-5V33a3,3,0,0,1,3-3h4a4.982,4.982,0,0,1,4,2.031A4.982,4.982,0,0,1,46.5,30h4a3,3,0,0,1,3,3Z" fill="#e0e8f5"/><path d="M50.5,32h-4a3,3,0,0,0-3,3v2a1,1,0,0,0,1,1h4a3,3,0,0,0,3-3V33A1,1,0,0,0,50.5,32Z" fill="#e0e8f5"/><path d="M38.5,32h-4a1,1,0,0,0-1,1v2a3,3,0,0,0,3,3h4a1,1,0,0,0,1-1V35A3,3,0,0,0,38.5,32Z" fill="#e0e8f5"/><path d="M60.669,20.515l-17-7.276a2.976,2.976,0,0,0-2.338,0l-17,7.276A3.03,3.03,0,0,0,22.5,23.309v22.1a3.04,3.04,0,0,0,1.062,2.315l17,14.553a2.965,2.965,0,0,0,3.876,0l17-14.553A3.04,3.04,0,0,0,62.5,45.411v-22.1a3.03,3.03,0,0,0-1.831-2.8ZM58.5,43.206A2.991,2.991,0,0,1,57.432,45.5l-13,10.947a2.994,2.994,0,0,1-3.865,0l-13-10.947A2.991,2.991,0,0,1,26.5,43.206V25.983a3,3,0,0,1,1.835-2.765l13-5.474a3.019,3.019,0,0,1,2.329,0l13,5.474A3,3,0,0,1,58.5,25.983Z" fill="#e0e8f5"/><path d="M22.5,11h3v8a1,1,0,0,0,2,0V11h3a5.006,5.006,0,0,0,5-5V4a3,3,0,0,0-3-3h-2a4.984,4.984,0,0,0-4,2.031A4.98,4.98,0,0,0,22.5,1h-2a3,3,0,0,0-3,3V6a5.006,5.006,0,0,0,5,5Zm8-8h2a1,1,0,0,1,1,1V6a3,3,0,0,1-3,3h-3V6A3,3,0,0,1,30.5,3Zm-11,1a1,1,0,0,1,1-1h2a3,3,0,0,1,3,3V9h-3a3,3,0,0,1-3-3Z" fill="#202020"/><path d="M49.748,15.372a4.68,4.68,0,0,0-6.434.635L30.752,30.651a1,1,0,0,1-.76.349H26.474A4.975,4.975,0,0,0,22.5,23H11.807a2.946,2.946,0,0,0-3.549-1.9L3.73,22.324A3.073,3.073,0,0,0,1.607,26.1L7.1,46.738a2.983,2.983,0,0,0,3.647,2.16l4.527-1.222A3.038,3.038,0,0,0,17.477,45H35.91a3,3,0,0,0,2.624-1.546l12.4-22.378a4.457,4.457,0,0,0-1.186-5.7Zm-35,30.373-4.527,1.222a.985.985,0,0,1-1.192-.742l-5.49-20.64a1.086,1.086,0,0,1,.713-1.331l4.527-1.222a.986.986,0,0,1,1.192.743l5.49,20.64a1.085,1.085,0,0,1-.713,1.33ZM49.189,20.106l-12.4,22.378A1,1,0,0,1,35.91,43H17.154L12.366,25H22.5a3,3,0,0,1,0,6h-4a1,1,0,0,0,0,2H29.992a3,3,0,0,0,2.277-1.047L44.832,17.309a2.715,2.715,0,0,1,3.688-.358,2.465,2.465,0,0,1,.669,3.155Z" fill="#202020"/></g></svg>