<svg width="64" height="64" xmlns="http://www.w3.org/2000/svg">

 <g>
  <title>background</title>
  <rect fill="none" id="canvas_background" height="602" width="802" y="-1" x="-1"/>
 </g>
 <g>
  <title>Layer 1</title>
  <g id="svg_1" fill="#c4a2fc">
   <circle fill="#e0e8f5" id="svg_2" r="7" cy="25" cx="23"/>
   <circle fill="#e0e8f5" id="svg_3" r="7" cy="25" cx="53"/>
   <path fill="#e0e8f5" id="svg_4" d="m54,35a9.01,9.01 0 0 0 -9,9l0,15a3,3 0 0 0 3,3l12,0a3,3 0 0 0 3,-3l0,-15a9.01,9.01 0 0 0 -9,-9z"/>
   <path fill="#e0e8f5" id="svg_5" d="m27.411,55.943a6.994,6.994 0 0 1 -6.451,-4.265l-1.953,-4.6a5,5 0 1 1 9.2,-3.906l0.782,1.841l2.011,-0.855l0,-0.158a9,9 0 0 0 -18,0l0,15a3,3 0 0 0 3,3l12,0a3,3 0 0 0 3,-3l0,-3.979l-0.862,0.366a6.945,6.945 0 0 1 -2.727,0.556z"/>
   <path fill="#e0e8f5" id="svg_6" d="m33.959,45.076l-5.105,2.166a1,1 0 0 1 -1.311,-0.531l-1.172,-2.761a3,3 0 1 0 -5.523,2.343l1.952,4.607a5,5 0 0 0 6.556,2.65l6.279,-2.665a4.934,4.934 0 0 1 -1.676,-5.809z"/>
   <path fill="#e0e8f5" id="svg_7" d="m35.848,45.707a3,3 0 0 0 1.589,3.933l5.563,2.36l0,-6.517l-3.219,-1.366a3,3 0 0 0 -3.933,1.59z"/>
  </g>
  <path id="svg_8" fill="#1ac293" d="m50.124,17.712l-14.803,-14.829a3.072,3.072 0 0 0 -4.245,0l-2.719,2.722a3.009,3.009 0 0 0 0,4.244l0.281,0.281l-2.385,2.092l-2.846,-2.138l0.234,-0.235a3.008,3.008 0 0 0 0,-4.244l-2.717,-2.722a2.993,2.993 0 0 0 -4.245,0l-14.803,14.829a3.007,3.007 0 0 0 0,4.243l2.717,2.722a2.947,2.947 0 0 0 3.059,0.718l0.673,2.7l-0.678,0.678a3.789,3.789 0 0 0 0,5.342a3.747,3.747 0 0 0 2.669,1.107c0.056,0 0.11,-0.014 0.166,-0.017a3.752,3.752 0 0 0 3.755,3.945c0.056,0 0.11,-0.014 0.166,-0.016a3.754,3.754 0 0 0 3.755,3.944c0.056,0 0.11,-0.014 0.166,-0.017a3.76,3.76 0 0 0 6.423,2.839l1.008,-1.009l0.027,0.028a3.76,3.76 0 0 0 6.423,-2.838c0.056,0 0.11,0.017 0.167,0.017a3.754,3.754 0 0 0 3.754,-3.945c0.056,0 0.109,0.017 0.165,0.017a3.754,3.754 0 0 0 3.709,-3.16a3.745,3.745 0 0 0 1.19,0.209a3.778,3.778 0 0 0 2.667,-6.449l-1.94,-1.943l1.128,-2.259l0.11,0.109a3,3 0 0 0 4.246,0l2.718,-2.722a3.007,3.007 0 0 0 0.005,-4.243zm-44.115,5.552l-2.718,-2.723a1,1 0 0 1 0,-1.416l14.809,-14.825a1,1 0 0 1 1.414,0l2.717,2.723a1,1 0 0 1 0,1.417l-14.807,14.824a1.022,1.022 0 0 1 -1.415,0zm3.054,9.436a1.784,1.784 0 0 1 0,-2.515l1.472,-1.473a1.811,1.811 0 0 1 2.5,0a1.783,1.783 0 0 1 0,2.515l-1.467,1.473a1.81,1.81 0 0 1 -2.505,0zm3.921,3.927a1.782,1.782 0 0 1 0,-2.514l1.47,-1.473a1.811,1.811 0 0 1 2.506,0a1.781,1.781 0 0 1 0,2.514l-1.47,1.473a1.809,1.809 0 0 1 -2.506,-0.001l0,0.001zm3.921,3.929a1.783,1.783 0 0 1 0,-2.515l1.47,-1.474a1.775,1.775 0 1 1 2.5,2.516l-1.47,1.473a1.811,1.811 0 0 1 -2.5,-0.001l0,0.001zm3.921,3.927a1.781,1.781 0 0 1 0,-2.513l1.47,-1.473a1.774,1.774 0 1 1 2.5,2.514l-1.469,1.473a1.811,1.811 0 0 1 -2.501,-0.002l0,0.001zm21.62,-11.783a1.768,1.768 0 0 1 -2.5,0l-4.408,-4.416a1,1 0 0 0 -1.421,1.416l3.435,3.441a1.785,1.785 0 0 1 -0.007,2.508a1.768,1.768 0 0 1 -2.505,0l-3.432,-3.437a1,1 0 0 0 -1.415,1.413l3.431,3.437a1.78,1.78 0 0 1 0,2.514a1.809,1.809 0 0 1 -2.505,0l-3.428,-3.433a1,1 0 1 0 -1.415,1.413l1.956,1.96l1.47,1.472a1.783,1.783 0 0 1 0,2.515a1.811,1.811 0 0 1 -2.5,0l-0.213,-0.213a3.767,3.767 0 0 0 -3.436,-5.313c-0.056,0 -0.11,0.014 -0.166,0.016a3.754,3.754 0 0 0 -3.755,-3.944c-0.056,0 -0.11,0.014 -0.166,0.017a3.683,3.683 0 0 0 -3.924,-3.893a3.756,3.756 0 0 0 -1.088,-2.873a3.862,3.862 0 0 0 -4.425,-0.638l-0.629,-2.542l12.581,-12.607l2.736,2.056l-3.346,2.931a3.786,3.786 0 0 0 0,5.341a3.861,3.861 0 0 0 5.294,0.042l4.162,-3.335l11.619,11.636a1.783,1.783 0 0 1 0,2.516zm-2.014,-7.364l-0.977,-0.98c-0.007,-0.006 -0.016,-0.008 -0.022,-0.014l-7.825,-7.842a1,1 0 0 0 -1.333,-0.073l-4.9,3.927a1.821,1.821 0 0 1 -2.588,0.074a1.773,1.773 0 0 1 -0.048,-2.469l7.317,-6.414l11.504,11.53l-1.128,2.261zm8.276,-4.794l-2.718,2.722a1.021,1.021 0 0 1 -1.414,0l-14.803,-14.828a1,1 0 0 1 0,-1.417l2.718,-2.719a1,1 0 0 1 1.413,0l14.8,14.829a1,1 0 0 1 0.004,1.412l0,0.001z"/>
 </g>
</svg>