<svg width="64" height="64" xmlns="http://www.w3.org/2000/svg">

 <g>
  <title>background</title>
  <rect fill="none" id="canvas_background" height="602" width="802" y="-1" x="-1"/>
 </g>
 <g>
  <title>Layer 1</title>
  <g id="svg_1" fill="#c4a2fc">
   <path fill="#e0e8f5" id="svg_2" d="m43,17.835a1,1 0 0 0 -1,-1l-14,0a3,3 0 0 0 -3,3l0,7.7c0,1.14 0.057,2.272 0.159,3.395a1,1 0 0 0 1,0.905l16.841,0l0,-14z"/>
   <path fill="#e0e8f5" id="svg_3" d="m62.841,30.93c0.1,-1.123 0.159,-2.255 0.159,-3.395l0,-7.7a3,3 0 0 0 -3,-3l-14,0a1,1 0 0 0 -1,1l0,14l16.841,0a1,1 0 0 0 1,-0.905z"/>
   <path fill="#e0e8f5" id="svg_4" d="m45,33.835l0,25.738a0.427,0.427 0 0 0 0.663,0.355a38.821,38.821 0 0 0 16.6,-24.91a1,1 0 0 0 -0.989,-1.183l-16.274,0z"/>
   <path fill="#e0e8f5" id="svg_5" d="m25.739,35.018a38.824,38.824 0 0 0 16.6,24.91a0.426,0.426 0 0 0 0.661,-0.355l0,-25.738l-16.272,0a1,1 0 0 0 -0.989,1.183z"/>
  </g>
  <path id="svg_6" fill="#1ac293" d="m45.5,34l-0.5,0l0,-11a7.007,7.007 0 0 0 -3.653,-6.146a5.5,5.5 0 1 0 -6.694,0a7.032,7.032 0 0 0 -1.86,1.485a7.026,7.026 0 0 0 -3.446,-4.485a5.5,5.5 0 1 0 -6.694,0a7,7 0 0 0 -3.653,6.146l0,1.111a7.029,7.029 0 0 0 -1.653,-1.257a5.5,5.5 0 1 0 -6.694,0a7.013,7.013 0 0 0 -3.573,5.146l-5.08,0a1,1 0 0 0 0,2l24,0a2,2 0 0 1 0,4l-12,0a1,1 0 0 0 0,2l8.764,0l5.789,2.9a1,1 0 0 0 0.447,0.1l16.5,0a3.5,3.5 0 0 1 0,7l-19.264,0l-11.789,-5.9a1,1 0 0 0 -0.447,-0.1l-12,0a1,1 0 0 0 0,2l11.764,0l11.789,5.9a1,1 0 0 0 0.447,0.1l19.5,0a5.5,5.5 0 0 0 0,-11zm-11,-21.5a3.5,3.5 0 1 1 3.5,3.5a3.5,3.5 0 0 1 -3.5,-3.5zm3.5,5.5a5.006,5.006 0 0 1 5,5l0,11l-10,0l0,-11a5.006,5.006 0 0 1 5,-5zm-15.5,-8.5a3.5,3.5 0 1 1 3.5,3.5a3.5,3.5 0 0 1 -3.5,-3.5zm-12,6a3.5,3.5 0 1 1 3.5,3.5a3.5,3.5 0 0 1 -3.5,-3.5zm3.5,5.5a5.009,5.009 0 0 1 4.9,4l-9.8,0a5.009,5.009 0 0 1 4.9,-4zm12.97,11.867a3.992,3.992 0 0 0 -0.97,-7.867l-5,0l0,-5a5,5 0 0 1 10,0l0,14l-1.764,0l-2.266,-1.133z"/>
 </g>
</svg>