<svg xmlns="http://www.w3.org/2000/svg" width="377.305" height="407.596" viewBox="0 0 377.305 407.596"><g transform="translate(-19.025)"><path d="M322.872,281.322V177.481L232.939,125.56l-89.934,51.921V281.322l89.934,51.921Z" transform="translate(-25.281 -25.604)" fill="#e0e8f5"/><path d="M231.938,407.6H183.377V358.382l-17.753,17.753L131.281,341.8l52.1-52.1V245.855L145.4,267.779,126.3,338.941,79.424,326.395l6.5-24.257L43.306,326.721,19.025,284.672l42.622-24.615-24.257-6.5,12.57-46.905,71.162,19.106L159.1,203.8l-37.973-21.924L49.961,200.94l-12.57-46.905,24.257-6.5L19.025,122.923,43.306,80.874l42.622,24.607L79.424,81.2l46.913-12.57,19.106,71.162,37.973,21.924V117.892L131.281,65.8l34.343-34.335,17.753,17.753V0h48.561V49.214l17.753-17.753L284.034,65.8l-52.1,52.1v43.848l37.973-21.924,19.066-71.162L335.891,81.2l-6.5,24.257L372.009,80.85l24.32,42.073-42.622,24.615,24.257,6.5-12.57,46.905-71.2-19.066L256.219,203.8l37.973,21.924,71.162-19.106,12.57,46.905-24.257,6.5,42.662,24.655-24.281,42.049-42.662-24.607,6.5,24.281-46.913,12.57-19.066-71.186-37.973-21.924V289.7l52.1,52.1-34.343,34.335-17.753-17.753V407.6Zm-35.824-12.737H219.2V327.629l30.49,30.49,16.328-16.32L219.2,294.981V223.787l61.649,35.6,17.14,63.949,22.29-5.971-11.145-41.659,58.226,33.619,11.543-20-58.2-33.611,41.651-11.145-5.971-22.29-63.957,17.14L230.744,203.8,292.393,168.2l63.957,17.14,5.971-22.29L320.67,151.909,378.9,118.3l-11.543-20-58.226,33.619L320.272,90.26l-22.29-5.971-17.14,63.95L219.2,183.808V112.614L266.018,65.8l-16.328-16.32L219.2,79.967V12.737H196.114V79.967l-30.49-30.49L149.3,65.8l46.818,46.818v71.194l-61.649-35.6-17.14-63.95-22.29,5.971,11.145,41.659L47.963,98.269l-11.543,20,58.194,33.611L52.962,163.022l5.971,22.29,63.957-17.14L184.571,203.8l-61.649,35.593-63.957-17.14-5.971,22.29,41.651,11.145L36.419,289.329l11.543,20,58.226-33.619L95.043,317.367l22.29,5.971,17.14-63.95,61.649-35.6v71.194L149.3,341.8l16.328,16.32,30.49-30.49Z" fill="#1ac293"/></g></svg>