<svg id="Layer_1" enable-background="new 0 0 512 512" height="512" viewBox="0 0 512 512" width="512" xmlns="http://www.w3.org/2000/svg"><g><path d="m256 350.267h-241c-8.284 0-15-6.716-15-15v-288.134c0-8.284 6.716-15 15-15h241c8.284 0 15 6.716 15 15v288.133c0 8.285-6.716 15.001-15 15.001z" fill="#ffcb00"/><path d="m497 350.267h-241v-318.134h241c8.284 0 15 6.716 15 15v288.133c0 8.285-6.716 15.001-15 15.001z" fill="#0098c9"/><path d="m256 479.867c-8.284 0-15-6.716-15-15v-80.333c0-8.284 6.716-15 15-15s15 6.716 15 15v80.333c0 8.284-6.716 15-15 15z" fill="#091d21"/><circle cx="135.5" cy="151.567" fill="#d17b48" r="55.167"/><path d="m376.5 479.867h-241c-8.284 0-15-6.716-15-15s6.716-15 15-15h241c8.284 0 15 6.716 15 15s-6.716 15-15 15z" fill="#006b6c"/><path d="m135.5 206.733v-110.333c30.419 0 55.167 24.748 55.167 55.167s-24.748 55.166-55.167 55.166z" fill="#a05e2c"/><path d="m191.733 350.267h-112.466c-8.284 0-15-6.716-15-15v-57.3c0-39.278 31.955-71.233 71.233-71.233s71.233 31.955 71.233 71.233v57.3c0 8.284-6.715 15-15 15z" fill="#004647"/><path d="m191.733 350.267c8.284 0 15-6.716 15-15v-57.3c0-39.278-31.955-71.233-71.233-71.233v143.533z" fill="#091d21"/><path d="m376.5 449.867h-120.5v30h120.5c8.284 0 15-6.716 15-15s-6.716-15-15-15z" fill="#004647"/><circle cx="376.5" cy="151.567" fill="#ffe1d2" r="55.167"/><path d="m376.5 206.733v-110.333c30.419 0 55.167 24.748 55.167 55.167s-24.748 55.166-55.167 55.166z" fill="#ffc3b9"/><path d="m432.733 350.267h-112.466c-8.284 0-15-6.716-15-15v-57.3c0-39.278 31.955-71.233 71.233-71.233s71.233 31.955 71.233 71.233v57.3c0 8.284-6.715 15-15 15z" fill="#ee1c66"/><path d="m432.733 350.267c8.284 0 15-6.716 15-15v-57.3c0-39.278-31.955-71.233-71.233-71.233v143.533z" fill="#a8003f"/><path d="m497 399.533h-482c-8.284 0-15-6.716-15-15v-49.267h512v49.267c0 8.284-6.716 15-15 15z" fill="#006b6c"/><path d="m256 399.533h241c8.284 0 15-6.716 15-15v-49.267h-256z" fill="#004647"/></g></svg>