<svg xmlns="http://www.w3.org/2000/svg" width="60" height="61.993" viewBox="0 0 60 61.993"><g transform="translate(-2 -1.007)"><path d="M60,59H20a2,2,0,0,0,0,4H60a2,2,0,0,0,0-4Z" fill="#1ac293"/><path d="M38,53a3,3,0,0,0-3,3v1H55V56a3,3,0,0,0-3-3Z" fill="#1ac293"/><path d="M21.706,32.741,44,42.65V47H41a3,3,0,0,0-3,3v1H52V50a3,3,0,0,0-3-3H46V18a1,1,0,0,0-1.406-.914L21.706,27.258a3,3,0,0,0,0,5.483Z" fill="#1ac293"/><path d="M3,51H49a1,1,0,0,0,0-2H47.712L34.686,23.111A2.978,2.978,0,0,0,33,21.634V2a1.019,1.019,0,0,0-1.316-.949l-12.308,4.1a3,3,0,0,0,0,5.692L31,14.719v6.919a2.977,2.977,0,0,0-1.678,1.479L20.014,41.734,16.633,35.09a3,3,0,0,0-5.362.027L4.38,49H3a1,1,0,0,0,0,2ZM20.009,8.947a1,1,0,0,1,0-1.9L31,3.386v9.225Zm11.1,15.065a1,1,0,0,1,1.787,0L45.473,49H23.71l-2.568-5.047ZM13.062,36.006A1,1,0,0,1,14.85,36l6.615,13H6.613Z" fill="#e0e8f5"/></g></svg>