<svg xmlns="http://www.w3.org/2000/svg" xmlns:xlink="http://www.w3.org/1999/xlink" width="750.564" height="647.796" viewBox="0 0 750.564 647.796"><defs><linearGradient id="a" x1="0.211" y1="-0.275" x2="0.766" y2="1.213" gradientUnits="objectBoundingBox"><stop offset="0" stop-color="#e0e8f5" stop-opacity="0"/><stop offset="0" stop-color="#e0e8f5"/><stop offset="1" stop-color="#fff"/></linearGradient></defs><g transform="translate(750.564 596.222) rotate(175)"><path d="M591.74,295.87c0,163.4-132.47,295.87-295.87,295.87S0,459.27,0,295.87,132.47,0,295.87,0,591.74,132.46,591.74,295.87Z" fill-rule="evenodd" fill="url(#a)"/><path d="M663.45,464.99a130.8,130.8,0,1,1-130.81-130.8A130.816,130.816,0,0,1,663.45,464.99Z" fill="rgba(255,255,255,0.41)" fill-rule="evenodd"/><path d="M697.36,464.99A164.72,164.72,0,1,1,532.64,300.27,164.71,164.71,0,0,1,697.36,464.99Z" fill="none" stroke="#202020" stroke-miterlimit="10" stroke-width="1.8" fill-rule="evenodd" opacity="0.28"/></g></svg>